<svg xmlns:svg="http://www.w3.org/2000/svg" xmlns="http://www.w3.org/2000/svg" height="7936" version="1.1" width="5115"><g transform="translate(2475, 3840)"><path d="M139.96 69.03C137.53 53.21 129.09 37.4 114.59 29.65 99.36 21.02 80.59 18.27 63.83 23.89 50.24 27.92 37.43 36.59 31.32 49.74c-7.65 14.23-8.45 31.16-5.05 46.73 3.57 20.48 9.56 40.54 18.44 59.36 2.21 4.87 4.3 9.82 7.21 14.32-3.2 9.91-8.45 18.97-11.97 28.75-0.19 4.4 0.55 8.62 2.4 12.63 5.15 10.46 14.42 18.77 25.22 23.1 7.11 2.68 14.82 3.46 22.31 2.18 10.62-2.09 20.25-8.14 27.11-16.48 3.87-4.83 7.32-10.53 7.9-16.79 1.08-6.36-3.05-11.86-5.31-17.51-2.39-5.19-4.62-10.47-6.49-15.88 6.35-10.97 11.06-22.85 15.56-34.68 5.82-16.47 9.68-33.66 11.82-50.98 0.49-5.15 0.15-10.33-0.51-15.46z" fill="#448eff"/><path d="m51.91 170.15c-2.68 7.82-6.18 15.31-9.7 22.77m0 0c-6.31 11.74 2.18 24.91 10.93 32.72 13.36 12.74 35.11 15.75 50.91 5.74 10.72-6.57 20.75-17.55 20.97-30.75-0.01-2.76-1.37-5.18-2.25-7.71m0 0c-3.52-7.46-7.02-14.96-9.7-22.77M29.55 53.55c-8.97 18.9-4.45 40.33 0.24 59.7 5 20.32 12.51 40.18 23.02 58.29 7.05 10.25 17.54 20.69 30.78 20.81 16.14-2.42 27.4-16.64 34.02-30.59 12.01-25.04 20.4-51.98 22.99-79.69C141.05 72.36 139.51 62.44 135.45 53.55m1 2.42C131.47 41.15 119.08 29.76 104.34 24.95 82.21 16.42 55.06 21.93 38.53 39.03 34.11 43.94 30.91 49.83 28.55 55.97" style="fill:none;stroke-linejoin:round;stroke-width:3;stroke:#000"/></g><g transform="translate(2475, 3584)"><path d="M139.08 64.74C135.49 47.43 123.57 31.56 106.51 25.73 83.75 15.97 54.99 21.36 38.06 39.61 24.45 55.56 21.97 78.29 26.72 98.14 31.16 123.21 39.57 147.71 52.14 169.88c-3.31 10.38-8.66 19.94-12.5 30.11-0.56 15.35 11.86 27.82 24.77 34.19 16.52 8.26 37.35 3.46 49.91-9.66 7.91-7.77 14.97-20.41 8.38-31.14-2.26-8.87-12.48-18.61-7.6-27.4 13.94-26.83 23.27-56.34 25.46-86.56 0.03-4.93-0.53-9.85-1.47-14.69z" fill="#448eff"/><path d="m52.14 169.88c-2.79 8.31-6.47 16.29-10.19 24.21m0 0c-6.28 11.31 1.79 24.15 10.2 31.8 13.66 13.4 36.31 16.54 52.61 6.1 10.64-6.64 20.84-17.7 20.59-30.97-0.26-2.45-1.48-4.64-2.3-6.92m0 0c-3.72-7.93-7.4-15.9-10.19-24.21M139.08 64.74C135.44 46.41 122.04 30.11 103.9 24.69 79.63 15.74 48.47 23.01 33.9 45.27 22.35 62.57 23.07 84.68 27.88 104.11c5.04 24.12 13.22 47.97 26.42 68.88 7.26 9.8 18.55 19.72 31.6 17.96 16.1-3.58 26.6-18.42 33.14-32.56 11.71-25.82 20.62-53.53 21.47-82.06C140.39 72.43 139.91 68.55 139.08 64.74Z" style="fill:none;stroke-linejoin:round;stroke-width:3;stroke:#000"/></g><g transform="translate(2475, 3328)"><path d="m134.03 117.13c3.1-13.97 6.87-28.12 6.23-42.54C139.18 55.98 129.64 36.7 112.34 28.31 97.57 20.62 79.82 18.39 63.9 23.73 51.59 27.42 39.97 34.78 33.47 46.14 24.76 60.33 22.84 77.82 26.16 93.96c3.16 19.63 8.44 38.97 16.84 57.03 2.92 6.29 5.47 12.81 9.36 18.58-3.45 10.86-8.86 20.93-13.05 31.49-0.18 4.19 0.38 8.25 2.22 12.05 3.94 8.3 10.75 15.12 18.61 19.79 8.76 5.13 19.22 7.31 29.27 5.64 11.17-1.85 21.31-8.15 28.56-16.78 4.29-5.45 8.11-12 7.65-19.17-0.31-4.63-3.29-8.77-4.95-13.08-3.01-6.51-5.77-13.14-8.05-19.94 6.21-10.06 10.53-21.17 14.95-32.1 2.58-6.64 4.74-13.42 6.45-20.34z" fill="#448eff"/><path d="M139.49 89.83 139.6 88.9 140.17 84.24 140.42 79.6 140.34 75.58 140.03 71.86 139.57 68.15 138.87 64.37 137.85 60.48 136.47 56.55" stroke-opacity="1" stroke-linejoin="round" stroke-linecap="butt" stroke-width="3" stroke="rgb(0, 0, 0)" fill="none"/><path d="m52.37 169.57c-2.92 8.81-6.77 17.27-10.7 25.67m0 0c-6.49 11.47 2.1 24.43 10.73 32.01 14.26 13.39 37.47 15.86 53.84 4.82 10.23-6.73 20.31-17.77 19.26-30.82-0.32-2.13-1.46-4-2.16-6.01m0 0c-3.93-8.4-7.78-16.86-10.7-25.67M28.53 56.55c-7.99 20.35-1.83 42.46 3.06 62.73 5.23 18.1 11.9 36.09 22.02 52.06 7.16 10.02 18.39 19.72 31.46 18.8 17.52-3.7 28.93-19.71 35.29-35.39 9.77-20.82 16.1-43.07 19.24-65.84M137.38 59.22C132.85 43.25 120.42 29.94 104.53 24.9 83.02 16.46 56.71 21.43 40.06 37.5 34.28 43.62 30.11 51.19 27.62 59.22" style="fill:none;stroke-linejoin:round;stroke-width:3;stroke:#000"/></g><g transform="translate(2475, 3072)"><path d="M138.66 64.02C135.1 48.68 125.56 34.01 110.79 27.51 96.43 20.3 79.32 18.43 63.98 23.59 51.75 27.33 40.16 34.64 33.7 45.97 24.92 60.04 23.04 77.47 26.24 93.54c3.02 19.19 8.02 38.13 16.27 55.78 2.97 6.86 6.28 13.86 10 20.16-3.58 11.25-9.02 21.75-13.51 32.63-0.39 5.86 1.33 11.7 4.8 16.43 5.06 7.98 12.84 14.03 21.44 17.82 9.88 4.07 21.22 4.73 31.35 1.13 9.38-3.08 17.72-9.32 23.52-17.28 3.66-4.95 6.36-10.9 5.87-17.16-1.73-6.83-5.69-13.1-8.24-19.74-1.98-4.62-3.71-9.33-5.33-14.09 6.65-10.55 11.19-22.29 15.82-33.84 6.25-16.77 9.83-34.47 11.85-52.21 0.52-6.41-0.1-12.86-1.41-19.14z" fill="#448eff"/><path d="M139.39 89.2C141.14 78.04 140.2 66.4 136.12 55.83 133.5 48.88 129.53 42.39 124.41 37 117.61 30.18 108.68 25.83 99.51 23.17 93.51 21.38 87.21 20.47 80.95 20.64 70.67 20.99 60.57 24.01 51.53 28.85 44.7 32.6 38.66 37.9 34.65 44.63 34.54 44.79 34.44 44.95 34.33 45.11" style="fill:none;stroke-linejoin:round;stroke-width:3;stroke:#000"/><path d="m52.6 169.21c-3.06 9.32-7.07 18.27-11.21 27.15m0 0c-5.43 8.83-0.55 19.34 5.47 26.46 11.64 13.94 31.73 20.91 49.19 14.85 13.73-4.49 26.16-15.45 29.81-29.75 0.73-4.25-0.45-7.81-2.23-11.55m0 0c-4.15-8.87-8.15-17.83-11.21-27.15M35.94 42.69c-11.69 15.75-13.23 36.69-8.93 55.32 3.77 23.74 12.13 46.55 23.41 67.71 6.98 11.88 18.8 23.16 33.31 23.46 16.74-2.45 28.65-16.89 35.06-31.62C129.66 135.44 136.67 111.68 139.62 87.24" style="fill:none;stroke-linejoin:round;stroke-width:3;stroke:#000"/></g><g transform="translate(2475, 2816)"><path d="M138.44 63.71C134.68 46.45 122.51 30.89 105.52 25.12 82.11 15.31 52.07 21.81 36.31 42.1 24.29 58.31 22.83 79.81 27.29 98.94c3.94 24.06 12.49 47.3 24.6 68.43 1.13 6.75-4.49 14.12-6.63 20.88-2.79 7.67-9.22 15.17-5.56 23.71 8.69 22.75 37.62 34.99 60.02 25.18 12.56-5.4 24.72-16.12 26.62-30.3-0.76-10.19-7.78-18.68-10.68-28.37-6.16-8.15-0.3-15.04 3.63-22.54 11.63-23.92 19.01-49.93 20.82-76.5 0.09-5.28-0.53-10.57-1.65-15.72z" fill="#448eff"/><path d="m52.83 168.8c-3.2 9.83-7.38 19.29-11.74 28.65m0 0c-5.8 9.33-0.05 20.56 6.81 27.55 13.41 15.21 37.25 20.27 55.27 10.51 10.68-5.4 20.14-14.8 23.03-26.69 0.71-4.21-0.49-7.68-2.29-11.36m0 0c-4.37-9.36-8.53-18.82-11.73-28.65M139.3 88.58C143.28 64.98 133 37.54 110.33 27.22 91.45 17.62 67.95 18.63 49.98 29.84 29.69 41.79 22.08 67.82 25.83 90.09c3.24 22.72 9.46 45.05 19.86 65.58 6.29 15.1 18.52 30.21 35.74 32.28 15.87-0.29 28.32-13.23 35.14-26.54 10.89-21.22 18.72-44.04 22.02-67.71 0.43-2.67 0.79-5.36 1.03-8.05" style="fill:none;stroke-linejoin:round;stroke-width:3;stroke:#000"/></g><g transform="translate(2475, 2560)"><path d="M117.21 31.21C101.9 21.25 82.17 17.41 64.63 23.36 51.43 27.31 38.96 35.57 32.71 48.2c-7.92 13.67-9.06 30.24-6.16 45.52 2.61 16.68 6.46 33.25 13.41 48.7 3.96 8.84 7.59 17.92 13.11 25.94-3.91 12.31-9.48 23.96-14.73 35.73-0.34 4.32 0.54 8.4 2.38 12.3 5.55 10.23 15.14 18.03 26.01 22.05 8.24 2.87 17.24 3.58 25.77 1.66 10.11-2.25 19.36-7.84 26.19-15.62 3.76-4.46 7.22-9.75 7.88-15.65 1.02-4.95-2.01-9.1-3.82-13.47-4.09-8.79-7.8-17.77-10.82-26.99 7.41-11.34 12.42-24.07 17.34-36.64 5.48-15.08 8.39-31 10.28-46.89 2.04-18.66-4.44-38.89-19.03-51.15-1.11-0.82-2.21-1.65-3.32-2.47z" fill="#448eff"/><path d="M139.2 87.98C142.82 65.21 133.4 38.87 111.95 28.14 94.45 18.52 72.37 17.92 54.68 27.42 33.04 37.51 22.5 63.24 25.52 86.13c2.78 23.22 8.72 46.16 19.31 67.1 6.54 15.76 19.01 31.93 37.21 33.65 17.65-0.98 30.28-16.11 37.04-31.19 9.28-19.05 16.25-39.27 19.06-60.34 0.58-3.74 1.21-7.47 1.48-11.25" style="fill:none;stroke-linejoin:round;stroke-width:3;stroke:#000"/><path d="m53.07 168.36c-3.35 10.34-7.68 20.32-12.27 30.16m0 0c-6.48 10.38 1.21 22.38 8.99 29.53 15.39 14.97 41.05 17.55 58.79 5.2 9.45-6.54 19.44-16.94 17.82-29.33-0.45-1.91-1.46-3.6-2.21-5.4m0 0c-4.59-9.84-8.92-19.82-12.27-30.16" style="fill:none;stroke-linejoin:round;stroke-width:3;stroke:#000"/></g><g transform="translate(2475, 2304)"><path d="M138.77 66.72C135.8 49.96 125.53 33.68 109.42 26.94 95.64 20.27 79.36 18.41 64.72 23.39 51.85 27.21 39.62 35.08 33.36 47.31c-8.32 13.7-9.6 30.53-6.72 46.02 2.48 16.25 6.07 32.43 12.87 47.47 4.12 9.24 7.94 18.75 13.81 27.05-4.09 12.79-9.7 25-15.33 37.17-0.3 4.11 0.38 8.04 2.21 11.75 5.13 9.83 14.21 17.27 24.38 21.5 8.18 3.26 17.18 4.22 25.89 2.86 10.76-2 20.89-7.43 28.21-15.62 3.98-4.43 7.52-9.84 8.23-15.84 0.7-3.68-0.71-6.91-2.4-10.09-4.76-10.37-9.56-20.99-12.74-31.86 7.34-10.87 12.19-23.19 17.07-35.29 5.81-15.21 8.6-31.4 10.55-47.5 0.7-6.08 0.46-12.19-0.62-18.21z" fill="#448eff"/><path d="m53.32 167.86c-4.09 12.8-9.7 24.99-15.33 37.17m89.01 0c-5.62-12.17-11.25-24.37-15.33-37.17M63.23 23.88c-14.82 4.39-27.62 15.28-33.16 29.88-6.98 15.52-5.11 32.92-1.82 49.08 3.55 21.41 11.79 41.81 22.28 60.7 7.27 11.94 20.09 23.23 34.93 21.88 17.46-3.06 28.95-18.76 35.37-34.17 11.04-22.35 17.36-46.93 18.88-71.78C140.59 57.34 128.43 33.67 106.88 25.78 91.45 18.94 73.59 18.8 58.17 25.77M37.99 205.02c-0.9 13.22 9.75 23.67 20.16 30.12 16.43 9.79 38.52 8.51 53.59-3.31 8.26-6.28 16.28-15.77 15.27-26.8" style="fill:none;stroke-linejoin:round;stroke-width:3;stroke:#000"/></g><g transform="translate(2475, 2048)"><path d="M138.57 66.43C135.54 49.56 125 33.3 108.77 26.62 94.94 20.14 78.75 18.65 64.19 23.55 51.55 27.31 39.85 35.27 33.58 47.1c-8.28 13.66-9.67 30.39-6.85 45.86 2.31 15.31 5.43 30.6 11.71 44.83 4.53 10.08 8.59 20.55 15.14 29.54-4.27 13.27-9.94 26.02-15.92 38.59-0.26 3.91 0.21 7.68 2.03 11.19 4.17 8.37 11.51 14.97 19.71 19.33 9.31 4.98 20.17 6.81 30.6 5.24 11.04-1.78 21.5-7.25 29.06-15.54 3.97-4.37 7.56-9.7 8.24-15.66 0.71-3.66-0.78-6.84-2.46-9.99-5.13-10.77-9.69-21.82-13.4-33.16 7.29-10.28 11.93-22.16 16.8-33.71 6.31-15.64 9.08-32.43 11.05-49.08C139.94 78.5 139.7 72.41 138.57 66.43Z" fill="#448eff"/><path d="m53.57 167.34c-4.27 13.28-9.95 26.01-15.92 38.59M138.57 66.43C135.43 47.92 122.8 30.78 104.58 24.85 82.38 15.94 54.48 21.56 38.57 39.72c-12.35 15-15.55 35.72-11.62 54.4 3.03 24.97 11.97 48.98 24.75 70.56 8.03 11.82 22.69 23.1 37.73 18.64 15.81-4.78 25.99-19.34 31.99-33.94 8.69-17.52 14.22-36.42 16.74-55.79 1.41-8.96 2.22-18.19 0.4-27.15zm-11.22 139.51c-5.98-12.58-11.66-25.32-15.92-38.59m-73.78 38.59c-0.96 12.81 9.39 22.92 19.41 29.26 17.05 10.46 40.24 9.07 55.88-3.42 7.87-6.21 15.39-15.23 14.42-25.85" style="fill:none;stroke-linejoin:round;stroke-width:3;stroke:#000"/></g><g transform="translate(2475, 1792)"><path d="M137.1 60.62C132.89 45.99 122.94 32.46 108.57 26.56 94.84 20.1 78.74 18.64 64.28 23.52 51.88 27.25 40.41 35 34.06 46.51c-8.13 13.24-10.04 29.48-7.44 44.62 2.21 15.35 5.05 30.75 11.33 45.03 4.72 10.47 8.93 21.39 15.89 30.62-4.47 13.75-10.21 27.04-16.54 40.03-0.59 5.78 1.46 11.48 5.08 15.96 5.9 8.23 14.77 14.14 24.3 17.36 10.31 3.41 21.62 3.37 31.91-0.05 11.03-3.76 21-11.25 26.81-21.45 1.82-3.96 3.18-8.46 1.88-12.72-6.19-12.69-11.74-25.7-16.11-39.13 7.28-9.8 11.79-21.34 16.62-32.48 6.6-15.58 9.25-32.44 11.29-49.12 0.93-8.25 0.26-16.56-1.98-24.56z" fill="#448eff"/><path d="m26.08 69.56c-1.85 13.9 1.58 27.75 3.95 41.37 3.52 17.34 11.14 33.53 19.27 49.13 5.47 9.61 13.98 17.67 24.49 21.43 2.97 1.18 6.36 1.54 9.51 1.67 4.34-0.38 8.44-1.58 12.32-3.54 9.97-4.92 17.44-13.77 22.28-23.64 8.26-16.54 15.78-33.78 18.42-52.23 2.43-13.65 5.03-27.89 1.14-41.54C134.65 51.05 128.52 40.46 119.56 33.13 108.56 24.83 94.64 20.37 80.88 20.61 67.57 21.24 54.17 25.83 43.89 34.43 34.36 43.02 28.38 55.17 26.42 67.78 26.31 68.37 26.19 68.96 26.08 69.56Z" style="fill:none;stroke-linejoin:round;stroke-width:3;stroke:#000"/><path d="M122.8 196.59 120.74 191.81 118.62 186.89 116.65 182.07 114.87 177.33 113.24 172.74" stroke-opacity="1" stroke-linejoin="round" stroke-linecap="butt" stroke-width="3" stroke="rgb(0, 0, 0)" fill="none"/><path d="M125.23 201.69 123.87 198.7 120.74 191.81" stroke-opacity="1" stroke-linejoin="round" stroke-linecap="butt" stroke-width="3" stroke="rgb(0, 0, 0)" fill="none"/><path d="M127.71 206.81 123.87 198.7" stroke-opacity="1" stroke-linejoin="round" stroke-linecap="butt" stroke-width="3" stroke="rgb(0, 0, 0)" fill="none"/><path d="m37.29 206.81c-0.07 3.34-0.11 6.77 1.49 9.8 3.25 7.59 9.5 13.54 16.31 18.01 13.21 8.56 30.47 10.48 45.19 4.82 10.73-4.07 20.49-11.7 25.67-22.09 1.69-3.31 1.86-6.92 1.75-10.55" style="fill:none;stroke-linejoin:round;stroke-width:3;stroke:#000"/><path d="M48.31 182.16 46.38 186.89 44.26 191.81 42.2 196.59" stroke-opacity="1" stroke-linejoin="round" stroke-linecap="butt" stroke-width="3" stroke="rgb(0, 0, 0)" fill="none"/><path d="M53.84 166.77 53.3 168.31 51.77 172.74 50.36 176.8" stroke-opacity="1" stroke-linejoin="round" stroke-linecap="butt" stroke-width="3" stroke="rgb(0, 0, 0)" fill="none"/><path d="M114.64 176.8 113.24 172.74 111.7 168.31 111.16 166.77" stroke-opacity="1" stroke-linejoin="round" stroke-linecap="butt" stroke-width="3" stroke="rgb(0, 0, 0)" fill="none"/><path d="M41.13 198.7 37.29 206.81" stroke-opacity="1" stroke-linejoin="round" stroke-linecap="butt" stroke-width="3" stroke="rgb(0, 0, 0)" fill="none"/><path d="M44.26 191.81 41.13 198.7 39.77 201.69" stroke-opacity="1" stroke-linejoin="round" stroke-linecap="butt" stroke-width="3" stroke="rgb(0, 0, 0)" fill="none"/><path d="M49.96 177.78 48.31 182.16 46.67 186.5" stroke-opacity="1" stroke-linejoin="round" stroke-linecap="butt" stroke-width="3" stroke="rgb(0, 0, 0)" fill="none"/><path d="M51.77 172.74 49.96 177.78 48.6 181.59" stroke-opacity="1" stroke-linejoin="round" stroke-linecap="butt" stroke-width="3" stroke="rgb(0, 0, 0)" fill="none"/></g><g transform="translate(2475, 1536)"><path d="M138.73 69.27C136.39 51.82 126.18 34.58 109.72 27.2 95.8 20.24 79.21 18.49 64.37 23.54 52.05 27.29 40.67 34.99 34.28 46.38 26.16 59.55 24.18 75.7 26.71 90.79c2.15 15.71 5.07 31.49 11.72 46.01 4.65 10.06 8.78 20.6 15.68 29.37-4.71 14.23-10.5 28.07-17.18 41.48-0.4 4.03 0.4 7.83 2.21 11.44 5.39 9.55 14.6 16.56 24.74 20.53 10.91 4.12 23.19 4.57 34.33 0.99 10.77-3.4 20.61-10.33 26.71-19.93 2.33-3.81 3.64-8.19 3.14-12.68-5.81-12.65-11.8-25.4-16.08-38.73-2.34-3.08 0.83-5.16 2.28-7.79 7.36-12.47 13.3-25.83 17.87-39.57 3.71-13.19 5.92-26.81 7.08-40.45 0.24-4.07 0.17-8.15-0.48-12.19z" fill="#448eff"/><path d="M138.73 69.27C137.01 56.49 131.18 44.12 121.78 35.22 112.14 26.62 99.34 21.92 86.58 20.78 72.91 19.76 59 23.99 47.69 31.61 37.81 38.59 31.24 49.59 27.94 61.08c-3.02 10.48-2.63 21.52-0.89 32.18 2.07 13.93 4.58 27.94 10.3 40.91 4.54 10.51 9.07 21.18 15.6 30.64 5.39 7 12.6 12.73 21.06 15.49 2.95 0.94 6.2 1.45 9.28 1.51 6.11-0.54 12.02-2.61 17.07-6.09 9.88-6.11 15.89-16.5 20.65-26.79 7.09-14.4 13.03-29.54 15.28-45.52 1.82-11.25 4.15-22.73 2.44-34.14z" style="fill:none;stroke-linejoin:round;stroke-width:3;stroke:#000"/><path d="M123.09 197.27 121.79 194.31 118.85 187.61 116.85 182.73 115.85 180.08" stroke-opacity="1" stroke-linejoin="round" stroke-linecap="butt" stroke-width="3" stroke="rgb(0, 0, 0)" fill="none"/><path d="M125.55 202.45 125.25 201.8 121.79 194.31" stroke-opacity="1" stroke-linejoin="round" stroke-linecap="butt" stroke-width="3" stroke="rgb(0, 0, 0)" fill="none"/><path d="m36.93 207.65c-0.04 0.55-0.06 1.09-0.07 1.63-0.03 3.25 0.59 6.41 2.09 9.36 1.69 3.31 4.01 6.33 6.59 9.01 3.76 3.83 8.13 6.99 12.85 9.53 4.11 1.98 8.35 3.69 12.84 4.61 4.45 1.04 9.08 1.38 13.64 1.23 4.09-0.32 8.18-0.76 12.09-2.05 4.64-1.23 9.06-3.31 13.15-5.81 4.42-2.77 8.38-6.22 11.77-10.17 2.08-2.89 4.34-5.74 5.24-11.16 0.9-5.42 0.91-5.79 0.25-7.57L125.25 201.8" style="fill:none;stroke-linejoin:round;stroke-width:3;stroke:#000"/><path d="M54.11 166.17 53.16 168.86 50.81 175.52 50.18 177.28" stroke-opacity="1" stroke-linejoin="round" stroke-linecap="butt" stroke-width="3" stroke="rgb(0, 0, 0)" fill="none"/><path d="M116.6 182.1 115.85 180.08 114.82 177.28 111.84 168.86 110.89 166.17" stroke-opacity="1" stroke-linejoin="round" stroke-linecap="butt" stroke-width="3" stroke="rgb(0, 0, 0)" fill="none"/><path d="M39.75 201.8 37.63 206.21 36.93 207.65" style="fill:none;stroke-linejoin:round;stroke-width:3;stroke:#000"/><path d="M43.21 194.31 39.75 201.8 39.45 202.45" stroke-opacity="1" stroke-linejoin="round" stroke-linecap="butt" stroke-width="3" stroke="rgb(0, 0, 0)" fill="none"/><path d="M45.79 188.44 43.21 194.31 41.91 197.27" stroke-opacity="1" stroke-linejoin="round" stroke-linecap="butt" stroke-width="3" stroke="rgb(0, 0, 0)" fill="none"/><path d="M47.68 183.87 45.79 188.44 44.27 192.13" stroke-opacity="1" stroke-linejoin="round" stroke-linecap="butt" stroke-width="3" stroke="rgb(0, 0, 0)" fill="none"/><path d="M49.26 179.76 47.68 183.87 46.45 187.06" stroke-opacity="1" stroke-linejoin="round" stroke-linecap="butt" stroke-width="3" stroke="rgb(0, 0, 0)" fill="none"/><path d="M50.81 175.52 49.26 179.76 48.4 182.1" stroke-opacity="1" stroke-linejoin="round" stroke-linecap="butt" stroke-width="3" stroke="rgb(0, 0, 0)" fill="none"/></g><g transform="translate(2475, 1280)"><path d="M138.54 69C136.17 51.45 125.67 34.29 109.07 27.03 95.34 20.26 79.05 18.64 64.46 23.61 52.06 27.41 40.66 35.24 34.23 46.71 26.22 59.88 24.37 75.94 26.87 90.96c2.06 15.66 5 31.39 11.75 45.79 4.64 9.88 8.79 20.26 15.77 28.76-4.97 14.7-10.83 29.08-17.82 42.94-0.44 4 0.4 7.75 2.22 11.32 5.49 9.44 14.74 16.28 24.86 20.15 10.88 4 23.08 4.58 34.2 1.14 9.61-2.8 18.55-8.41 24.86-16.21 3.45-4.26 6.38-9.51 5.73-15.16-0.75-4.36-3.75-8.21-5.32-12.39-4.94-10.28-8.68-21.05-12.5-31.78 7.71-9.62 12.33-21.28 17.33-32.45 6.77-15.83 9.25-33.07 11.02-50.07C139.3 78.33 139.32 73.63 138.54 69Z" fill="#448eff"/><path d="M123.38 197.92 122.88 196.8 119.34 188.88" stroke-opacity="1" stroke-linejoin="round" stroke-linecap="butt" stroke-width="3" stroke="rgb(0, 0, 0)" fill="none"/><path d="m54.39 165.51c-3.45 9.78-6.94 19.56-11.28 29-0.49 1.14-0.98 2.28-1.49 3.41m0.5-1.12c-1.85 3.88-3.67 7.78-5.55 11.65-1.08 8.98 5.05 16.82 11.5 22.3 16.48 14.35 42 16.6 60.85 5.64 8.46-4.94 16.49-12.18 19.32-21.85 0.35-1.65 0.18-3.34-0.09-5.98-1.97-4.75-3.63-8.25-5.27-11.76m-1.89-4.09c-3.99-8.86-7.08-18.08-10.38-27.2M138.54 69C136.64 55.4 130.09 42.17 119.41 33.37 108.49 25.03 94.63 20.45 80.9 20.7 67.57 21.33 54.18 26.04 43.98 34.76 33.74 44 27.69 57.36 26.19 70.98c-1.33 12.89 1.56 25.73 3.69 38.38 3.24 17.43 11.09 33.58 19.44 49.07 4.78 8.01 11.62 14.89 20.1 18.9 3.93 1.78 8.05 2.83 12.36 3.14 5.41-0.04 10.79-1.51 15.57-4.05 9.31-4.87 16.18-13.29 20.83-22.56 8.09-15.65 15.38-32.04 17.88-49.62C137.87 92.63 140.35 80.77 138.54 69Z" style="fill:none;stroke-linejoin:round;stroke-width:3;stroke:#000"/><path d="M44.99 190.38Z" style="fill:none;stroke-linejoin:round;stroke-width:3;stroke:#000"/><path d="M118.92 187.92 118.56 187.05" stroke-opacity="1" stroke-linejoin="round" stroke-linecap="butt" stroke-width="3" stroke="rgb(0, 0, 0)" fill="none"/></g><g transform="translate(2475, 1024)"><path d="M138.35 68.76C135.9 51.16 125.21 33.96 108.43 26.9 94.88 20.34 78.88 18.83 64.56 23.73 52.58 27.48 41.37 34.76 35 45.83 26.51 58.99 24.48 75.38 26.97 90.64c2 16.12 5.1 32.31 12.28 47.02 4.54 9.35 8.57 19.23 15.44 27.17-5.31 15.14-11.17 30.09-18.5 44.38-0.4 3.78 0.23 7.37 2.04 10.73 5.33 9.45 14.66 16.19 24.7 20.02 9.71 3.67 20.49 4.56 30.65 2.45 11.18-2.25 21.77-8.02 29.21-16.71 3.74-4.41 6.79-9.92 6.01-15.87-3.13-7.92-7.48-15.56-10.54-23.61-2.84-7.06-5.28-14.27-7.97-21.39 7.96-9.49 12.59-21.21 17.72-32.36 6.85-16.05 9.27-33.54 10.87-50.78C139.13 77.37 139.12 73.03 138.35 68.76Z" fill="#448eff"/><path d="m54.7 164.83c-5.31 15.14-11.3 30.03-18.5 44.38-0.93 13.61 11.42 23.22 22.27 28.89 23.07 11.48 55.11 4.42 68.46-18.41 1.6-3.23 2.18-6.91 1.88-10.48-2.71-5.56-5.38-11.13-7.91-16.77m0.36 0.82c-4.19-9.26-7.38-18.92-10.95-28.43M138.35 68.76C135.89 47.95 120.71 29.13 100.29 23.61 73.99 14.93 40.97 27.29 30.71 54c-8.53 20.17-3.62 42.47 1.08 62.93 4.51 16.37 11.64 32.21 21.47 46.07 9.18 12.73 27.05 20.64 41.96 13.21 17.11-7.25 24.6-25.48 31.73-41.28 8.13-19.01 11.75-39.82 11.98-60.42C138.85 72.59 138.66 70.66 138.35 68.76Z" style="fill:none;stroke-linejoin:round;stroke-width:3;stroke:#000"/></g><g transform="translate(2475, 768)"><path d="M137.05 62.8C133.18 47.11 122.57 32.53 107.23 26.47 94.08 20.62 78.88 19.08 65.14 23.77 53.05 27.29 41.77 34.59 35.33 45.63c-8.71 13.21-10.7 29.81-8.21 45.2 1.86 15.47 4.75 31.01 11.57 45.15 4.78 9.72 9.03 20.03 16.28 28.2-5.44 14.9-10.98 29.78-18.27 43.9-1.74 3.4-1.16 7.71 0.59 11.04 3.5 7.65 10.4 13.24 17.55 17.41 10.61 5.9 23.13 8.22 35.17 6.64 11.66-1.52 22.94-6.67 31.31-15.02 4.38-4.61 8.71-10.51 7.88-17.22-1.02-4.44-3.96-8.43-5.63-12.74-5.34-11-9.17-22.63-13.54-34.03 8.17-9.38 12.89-21.15 18.09-32.31 6.75-15.62 8.99-32.68 10.59-49.47C139.29 75.78 138.52 69.25 137.05 62.8Z" fill="#448eff"/><path d="m54.97 164.19c-5.63 15.55-11.55 31.03-19.16 45.74-1.09 12.56 10.27 21.63 20.11 27.22 22.99 12.43 55.45 6.84 70.46-15.31 5.84-7.41 1.38-16.02-2.59-23.01C118.54 187.64 114.46 175.96 110.1 164.41M137.05 62.8C132.86 44.46 118.65 28.69 100.29 23.84 75.88 15.77 45.46 25.52 33.3 48.94 23.17 66.58 26 87.65 29.46 106.7c3.91 20.35 12.63 39.86 24.71 56.64 9.84 12.03 27.74 18.76 42.25 11.14 17.34-8.21 24.83-27.21 32.08-43.67 6.83-16.75 9.51-34.93 10.32-52.9C138.82 72.83 138.3 67.73 137.05 62.8Z" style="fill:none;stroke-linejoin:round;stroke-width:3;stroke:#000"/><path d="M110.25 164.86 110.1 164.41 110.02 164.17" stroke-opacity="1" stroke-linejoin="round" stroke-linecap="butt" stroke-width="3" stroke="rgb(0, 0, 0)" fill="none"/><path d="M54.98 164.17 54.97 164.19 54.75 164.86" stroke-opacity="1" stroke-linejoin="round" stroke-linecap="butt" stroke-width="3" stroke="rgb(0, 0, 0)" fill="none"/></g><g transform="translate(2475, 512)"><path d="M136.84 62.53C132.78 46.47 121.55 31.75 105.69 25.97 92.72 20.55 77.93 19.63 64.53 24.08 52.42 27.65 41.42 35.33 35.05 46.38 26.58 59.61 24.85 76.05 27.31 91.32c1.74 14.26 4.13 28.63 10.28 41.75 5.1 10.51 9.7 21.62 17.61 30.38-5.67 15.68-11.62 31.3-19.28 46.14-1.54 3.98-0.08 8.26 1.75 11.92 6.5 9.98 17.18 16.7 28.52 19.91 11.89 3.41 24.84 2.99 36.46-1.22 10-3.66 19.49-10.06 24.95-19.35 2.24-4.08 3.13-9.3 0.44-13.38-7.27-14.16-12.8-29.1-18.25-44.02 8.09-9.04 12.84-20.46 18-31.3 6.94-15.25 8.99-32.05 10.68-48.54 0.68-7.1-0.02-14.14-1.65-21.07z" fill="#448eff"/><path d="m54.64 165.12c-5.66 15.49-11.66 30.8-19.21 45.49m0 0c-1.18 10.78 8.01 19.11 16.31 24.38 23.35 15.03 58.6 10.51 75.03-12.67 2.23-3.55 3.4-7.5 2.8-11.71m0 0c-7.84-15.19-14-31.1-19.77-47.16M136.84 62.53C132.52 44.57 118.75 29 100.69 24.15 78.57 16.82 51.27 23.67 37.33 42.9 26.59 57.32 24.45 76.28 27.63 93.59c1.71 17.7 6.72 34.98 15.27 50.6 6.49 13.83 16.53 27.92 32.4 31.29 17.08 4.18 33.94-7.37 41.79-22.03 9.6-16.76 17.57-34.87 19.51-54.29 1.87-12.09 3.47-24.61 0.25-36.63z" style="fill:none;stroke-linejoin:round;stroke-width:3;stroke:#000"/><path d="M55.2 163.45 54.64 165.12 54.63 165.16" stroke-opacity="1" stroke-linejoin="round" stroke-linecap="butt" stroke-width="3" stroke="rgb(0, 0, 0)" fill="none"/></g><g transform="translate(2475, 256)"><path d="M136.63 62.29C132.43 46.02 120.75 31.3 104.59 25.72 90.21 19.77 73.64 20.02 59.34 26.12 41.46 32.8 29.43 50.6 27.07 69.18c-1.85 13.21 0.98 26.5 2.98 39.54 2.89 16.79 10.96 32.18 19.63 46.65 1.72 2.6 3.55 5.11 5.75 7.32-5.81 16.14-11.99 32.19-19.86 47.46-1.54 3.76-0.31 7.92 1.53 11.38 6.25 9.91 16.9 16.27 27.92 19.67 11.29 3.23 23.41 3.3 34.71 0.07 11.09-3.3 21.74-9.72 28.11-19.58 1.84-3.47 3.1-7.53 1.7-11.34-7.19-13.97-13-28.57-18.4-43.32-1.78-2.89-1.63-5.54 1.31-7.51 8.45-12.09 14.99-25.53 19.83-39.44 3.61-12.94 5.31-26.38 6.25-39.76C138.91 74.22 137.95 68.23 136.63 62.29Z" fill="#448eff"/><path d="m55.43 162.68c-5.94 16.54-12.3 32.92-20.4 48.56m0 0c-1.23 10.69 8.13 18.76 16.39 23.87 22.33 13.79 54.41 10.89 72.66-8.46 3.77-4.23 6.89-9.54 5.88-15.41m0 0c-8.07-15.64-14.47-32.01-20.4-48.56M136.63 62.29C132.18 44.3 118.17 28.87 100.07 24.1 75.56 16.09 44.96 26.12 33.2 49.89 24.77 65.04 25.69 82.98 28.52 99.49c2.4 21.97 11.96 42.6 24.52 60.55 10.26 13.41 30.03 19.49 45.26 11.08 15.42-7.56 22.22-24.48 29.34-39 7.59-16.54 9.69-34.92 10.91-52.88C138.72 73.52 137.97 67.84 136.63 62.29Z" style="fill:none;stroke-linejoin:round;stroke-width:3;stroke:#000"/></g><g transform="translate(2475, 0)"><path d="M136.41 62.08C132.29 46.74 121.65 32.77 106.67 26.75 92.46 20.41 75.83 19.73 61.34 25.57 49.45 29.63 39.5 38.38 33.63 49.46c-7.19 12.92-8.26 28.27-5.96 42.64 1.55 13.69 3.74 27.54 9.89 40.02 5.11 10.4 10.07 21.25 18.1 29.76-6.01 16.76-12.51 33.37-20.67 49.22-1.26 3.68-0.11 7.53 1.72 10.85 6.41 9.74 17.11 15.87 28.09 19.16 11.41 3.15 23.6 3.26 35.02 0.09 11.13-3.19 21.92-9.4 28.43-19.2 1.57-3.01 2.75-6.1 2.12-9.54-3.49-8.56-8.19-16.81-11.54-25.53-3.25-8.32-6.5-16.64-9.51-25.05 8.42-9.03 13.64-20.47 18.88-31.51 6.9-14.79 8.41-31.26 10.03-47.28C138.85 76 138.07 68.98 136.41 62.08Z" fill="#448eff"/><path d="M106.06 164.94 106.26 164.69" stroke-opacity="1" stroke-linejoin="round" stroke-linecap="butt" stroke-width="3" stroke="rgb(0, 0, 0)" fill="none"/><path d="m55.67 161.88c-1.3 4.14-3.08 8.11-4.56 12.19-2.99 8.06-6.08 16.09-9.78 23.86-2.16 4.67-4.43 9.28-6.69 13.9m0 0c-0.62 3.82 0.51 7.47 2.47 10.73 3.44 4.97 8.07 9.07 13.23 12.19 7.64 4.7 16.4 7.44 25.28 8.42 7.23 0.72 14.61 0.4 21.67-1.38 7.84-1.73 15.33-5.15 21.73-10 3.9-3.06 7.57-6.61 9.85-11.06 1.6-2.81 1.84-5.73 1.49-8.89m0 0c-4.96-10.11-9.93-20.25-13.86-30.82-1.99-5.26-3.95-10.54-6.03-15.76-0.38-1.12-0.77-2.25-1.15-3.37M136.41 62.08C132.4 47.4 122.57 33.77 108.37 27.56 95.39 21.34 80.12 19.6 66.28 23.93 53.55 27.37 41.76 35.28 35.2 46.91c-7.08 11.06-9.5 24.62-8.36 37.59 1.72 14.95 3 30.32 9.25 44.21 4.58 10.44 9.79 20.75 16.61 29.92 4.18 5.17 9.52 9.26 15.55 12.04 5.82 2.33 12.21 3.78 18.47 2.71 6.02-0.62 11.74-3.17 16.74-6.51 10.6-7.28 16.13-19.36 21.94-30.4 5.08-10.19 8.87-21.06 10.29-32.4 1.84-13.21 4.42-26.83 1.14-40.03-0.14-0.65-0.28-1.3-0.42-1.95z" style="fill:none;stroke-linejoin:round;stroke-width:3;stroke:#000"/><path d="M108.68 163.05 108.71 162.56" stroke-opacity="1" stroke-linejoin="round" stroke-linecap="butt" stroke-width="3" stroke="rgb(0, 0, 0)" fill="none"/><path d="M56.29 162.56 56.32 163.05" stroke-opacity="1" stroke-linejoin="round" stroke-linecap="butt" stroke-width="3" stroke="rgb(0, 0, 0)" fill="none"/><path d="M58.75 164.69 58.94 164.94" stroke-opacity="1" stroke-linejoin="round" stroke-linecap="butt" stroke-width="3" stroke="rgb(0, 0, 0)" fill="none"/></g><g transform="translate(2475, 4096)"><path d="M139.5 65.58C136.31 50.95 128.03 36.65 114.41 29.55 99.13 21.11 80.46 18.45 63.74 24.01 50.21 27.98 37.39 36.54 31.31 49.64 23.09 64.57 22.74 82.49 26.55 98.77c3.75 20.61 10.13 40.69 19.09 59.63 1.66 4.2 4.17 8.32 5.95 12.27-3.05 9.49-8.58 18.07-11.33 27.59-0.33 6.19 1.76 12.26 5.34 17.27 5.33 8.27 13.43 14.77 22.59 18.31 8.92 3.39 19 3.59 27.96 0.22 9.14-3.21 17.08-9.62 22.62-17.52 3.59-5.11 6.31-11.13 5.94-17.49-0.95-6.65-5.06-12.51-7.46-18.77-1.43-3.25-2.73-6.55-3.93-9.89 6.4-11.46 11.38-23.71 15.87-36.03 5.46-15.95 9.26-32.51 11.41-49.22 0.62-6.53 0.07-13.11-1.08-19.55z" fill="#448eff"/><path d="m51.69 170.39c-2.58 7.32-5.89 14.34-9.21 21.34m0 0c-5.93 11.16 1.46 23.86 9.6 31.69 12.77 13.2 34.34 17.4 50.43 7.78 11.04-6.39 21.54-17.4 22.15-30.75 0.49-3.13-1.2-5.86-2.14-8.73m0 0c-3.32-7-6.63-14.03-9.21-21.34M139.5 65.58C136.06 48.52 124.83 32.58 108.09 26.49 84.99 16.1 55.32 21.03 37.88 39.68 23.79 56.16 21.58 79.7 26.78 100.11c4.93 25.09 13.15 49.8 26.01 71.96 6.91 10.41 17.35 20.96 30.64 21.22 15.19-2 25.99-15.18 32.69-27.99 12.86-26.01 21.86-54.2 24.63-83.14 0.22-5.55-0.18-11.13-1.25-16.58z" style="fill:none;stroke-linejoin:round;stroke-width:3;stroke:#000"/></g><g transform="translate(2475, 4352)"><path d="M139.7 66.05C136.59 51.16 128.1 36.64 114.24 29.5 99.05 21.36 80.69 18.7 64.13 24.05 50.88 27.8 38.23 35.83 31.85 48.41c-8.72 15.16-9.45 33.61-5.49 50.33 3.96 20.93 10.37 41.37 19.5 60.63 1.7 3.83 3.5 7.62 5.58 11.26-2.95 9.1-8.39 17.29-10.88 26.49-0.32 6.39 1.91 12.61 5.6 17.78 5.3 8.06 13.2 14.48 22.19 17.98 8.67 3.32 18.5 3.62 27.23 0.35 9.15-3.07 16.99-9.52 22.62-17.28 3.66-5.27 6.57-11.41 6.21-17.97-0.86-6.82-5.11-12.79-7.57-19.18-1.02-2.76-2.71-5.64-3.11-8.42 11.01-21.08 19.32-43.62 23.95-66.98 2.84-12.23 4.6-24.89 2.03-37.34z" fill="#448eff"/><path d="m51.44 170.62c-2.46 6.81-5.59 13.36-8.7 19.89m0 0c-5.18 15.59 5.28 32.06 18.91 39.3 14.45 8.84 33.63 6.88 46.81-3.41 10.99-7.92 18.75-22.37 13.8-35.89m0 0c-3.12-6.53-6.24-13.07-8.7-19.89M139.7 66.05C136.36 48.87 125.11 32.77 108.25 26.67 85.48 16.52 56.45 20.97 38.7 38.75 23.58 55.38 21.27 79.94 26.79 100.97c5.04 24.86 13.22 49.34 25.81 71.42 6.91 10.62 17.32 21.4 30.79 21.78 15.12-2.07 25.94-15.21 32.58-28.02 12.7-25.96 21.87-53.95 24.86-82.77 0.41-5.8 0-11.64-1.12-17.34z" style="fill:none;stroke-linejoin:round;stroke-width:3;stroke:#000"/></g><g transform="translate(2475, 4608)"><path d="M139.91 66.55C136.83 50.81 127.45 35.51 112.44 28.75 97.34 21.16 79.35 19.21 63.19 24.51 50.54 28.29 38.46 35.86 32.13 47.8 22.95 63.24 22.18 82.27 26.3 99.41c4.16 20.94 10.54 41.45 19.72 60.76 1.62 3.58 3.25 7.17 5.18 10.6-2.86 8.63-8.14 16.37-10.35 25.17-0.32 6.59 2.08 12.95 5.85 18.28 5.38 7.96 13.21 14.44 22.25 17.79 8.6 3.31 18.37 3.36 26.97 0.05 9.02-3.26 16.78-9.72 22.21-17.57 3.69-5.3 6.33-11.54 5.99-18.09-1.51-8.05-6.49-15.06-9.24-22.77-2.03-2.54-0.03-4.82 1.19-7.18 9.35-19.31 16.85-39.55 21.21-60.58 3.12-12.86 5.27-26.15 2.62-39.3z" fill="#448eff"/><path d="m51.2 170.76c-2.34 6.34-5.29 12.43-8.21 18.51m0 0c-6.04 15.54 5.41 31.59 18.5 39.19 21.61 14.47 54.09 1.06 61.13-23.4 1.55-5.17 1.94-10.85-0.61-15.78m0 0c-2.92-6.09-5.87-12.17-8.21-18.51M139.91 66.55C136.69 48.97 124.98 32.57 107.71 26.6 84.99 16.91 56.32 21.29 38.62 38.84 23.18 55.7 21.12 80.77 26.85 102.08c5.31 24.92 13.45 49.54 26.22 71.66 6.85 10.31 17.07 20.87 30.25 21.27 14.56-1.97 25.15-14.44 31.78-26.68 13-26.14 22.36-54.35 25.78-83.4 0.51-6.14 0.19-12.33-0.98-18.38z" style="fill:none;stroke-linejoin:round;stroke-width:3;stroke:#000"/></g><g transform="translate(2475, 4864)"><path d="M140.11 67.07C137.24 51.94 128.7 37.18 114.7 29.92 99.07 21.48 80.11 19.07 63.11 24.6 50.22 28.4 38 36.27 31.65 48.44 22.75 64.01 22.06 82.97 26.25 100.09c4.38 21.1 10.82 41.8 20.13 61.27 1.47 3.18 2.86 6.41 4.6 9.47-2.81 8.16-7.89 15.5-9.84 23.9-0.19 4.45 0.8 8.67 2.57 12.74 5.15 10.4 14.1 19.04 24.94 23.31 7.29 2.86 15.45 3.48 23.03 1.52 9.92-2.47 18.41-8.86 24.71-16.78 4.15-5.77 7.76-12.47 7.43-19.79-0.45-6.37-4.46-11.91-6.8-17.76-0.88-2.49-2.73-5.06-2.77-7.58 10.42-20.47 18.41-42.18 23.22-64.66 3.17-12.65 5.14-25.7 2.64-38.67z" fill="#448eff"/><path d="m50.98 170.83c-2.24 5.87-5 11.53-7.74 17.18m0 0c-5.88 11.88 2.1 25.01 10.57 33.26 12.19 12.25 32.38 16.19 47.56 7.18 11.27-6.36 21.17-17.64 22.45-30.91 0.07-3.28-0.68-6.56-2.05-9.53m0 0c-2.74-5.65-5.5-11.31-7.74-17.18M140.11 67.07C137.03 49.3 125.21 32.71 107.79 26.68 84.39 16.81 54.47 21.53 37.05 40.56 22.63 57.78 21.19 82.28 26.93 103.22c5.53 24.79 13.6 49.35 26.38 71.4 6.77 10.23 16.84 20.59 29.85 21.11 14.48-1.83 25-14.21 31.64-26.32 13.11-26.29 22.59-54.65 26.22-83.86 0.55-6.17 0.23-12.39-0.9-18.47z" style="fill:none;stroke-linejoin:round;stroke-width:3;stroke:#000"/></g><g transform="translate(2475, 5120)"><path d="m132.89 124.08c5.68-20.87 12.62-43.27 5.32-64.68C133.69 43.52 120.93 30.81 105.27 25.79 83.08 17.75 55.94 21.98 38.78 38.66 23.31 55.14 20.78 79.87 26.31 101.01c4.86 23.89 13.05 47.03 23.83 68.88-0.47 8.98-9.39 16.84-8.68 26.58 1.79 15.29 14.07 27.98 28.02 33.47 17.25 6.96 37.12-1.82 47.27-16.52 5.99-7.86 9.44-18.98 4.07-28.08-4.53-8.09-8.87-16.35-1.8-24.42 5.5-11.92 10.34-24.18 13.88-36.84z" fill="#448eff"/><path d="m43.48 186.74c-5.82 12.65 2.6 26.25 11.94 34.59 12.17 11.66 32.02 14.78 46.52 5.59 11.53-6.92 21.83-19.15 21.54-33.21-0.06-2.49-1.29-4.65-1.95-6.97m0 0c-2.57-5.23-5.11-10.47-7.28-15.87M50.04 169.53C56.77 182.08 67.59 194.77 82.5 196.73 97.59 194.69 108.53 181.83 115.18 169.03 127.68 143.95 136.4 116.97 140.81 89.29 143.84 66.87 135.63 40.73 114.44 29.84 92.69 17.96 64.44 19.36 44.25 33.84 26.11 47.58 20.86 72.76 24.86 94.23 29.87 120.35 38.1 145.74 50.04 169.53Z" style="fill:none;stroke-linejoin:round;stroke-width:3;stroke:#000"/><path d="M50.76 170.86 50.64 171.17 48.96 175.15 47.18 179.07 45.33 182.94 43.48 186.74" stroke-opacity="1" stroke-linejoin="round" stroke-linecap="butt" stroke-width="3" stroke="rgb(0, 0, 0)" fill="none"/></g><g transform="translate(2475, 5376)"><path d="M140.51 68.22C137.77 52.89 129.44 37.67 115.2 30.33 99.21 21.76 79.85 19.5 62.49 25.06 49.78 28.84 37.63 36.53 31.45 48.61c-9.17 16.1-9.7 35.72-5.19 53.35 4.73 21.07 11.23 41.78 20.63 61.26 0.98 2.7 2.95 5.41 3.45 8.04-2.65 7.24-7.55 13.78-8.62 21.48-0.26 6.66 2.37 13 6.08 18.42 6.07 8.94 15.15 16.11 25.71 18.87 7.59 2.04 15.76 1.29 23.04-1.62 10.49-4.41 19.02-12.92 24.09-23.04 1.88-4.58 3.27-9.57 2.42-14.5-1.88-7.07-5.99-13.23-8.57-20.05 9.44-18.84 16.99-38.65 21.92-59.16 3.69-14.01 6.82-28.62 4.15-43.12L140.51 68.22Z" fill="#448eff"/><path d="m50.52 170.82c-2.05 4.97-4.42 9.8-6.81 14.62m0 0c-5.91 13.19 3.23 27.48 13.16 35.88 12.12 10.64 30.9 13.33 44.77 4.49 11.32-6.78 21.38-18.71 21.56-32.44-0.13-2.74-0.79-5.44-1.92-7.94m0 0c-2.39-4.82-4.76-9.64-6.81-14.62M140.51 68.22C137.65 50.9 126.9 34.14 109.96 27.82 86.4 17.29 55.83 21.09 37.52 39.92 22.21 57.53 20.75 83.16 26.92 104.81c5.74 24.58 13.92 48.83 26.42 70.82 6.8 10.27 16.64 20.59 29.58 21.77 15.67-2.52 26.5-16.35 33.21-29.75 12.11-25.16 20.88-52.05 25.06-79.68 0.63-6.58 0.35-13.23-0.68-19.75z" style="fill:none;stroke-linejoin:round;stroke-width:3;stroke:#000"/></g><g transform="translate(2475, 5632)"><path d="M119.72 33.14C101.26 21.05 76.93 18.98 56.53 27.26 44.58 31.75 34.34 40.81 29.36 52.67 21.7 68.65 22.08 87.26 26.54 104.09c4.82 20.71 11.41 41.05 20.68 60.22 0.64 2.46 3.25 4.86 2.67 7.3-2.57 6.63-7.08 12.71-7.93 19.86-0.25 6.85 2.53 13.31 6.33 18.88 6.07 8.71 14.92 15.78 25.3 18.5 7.52 2.04 15.61 1.28 22.82-1.63 10.43-4.44 18.87-12.96 23.91-23.05 1.89-4.61 3.27-9.61 2.46-14.57-1.64-6.71-5.59-12.48-8.07-18.88 9.07-18.34 16.5-37.5 21.41-57.38 3.8-14.17 7.23-28.94 4.68-43.65C138.55 55.57 131.79 41.38 119.72 33.14Z" fill="#448eff"/><path d="m43.94 184.12c-5.47 11.88 1.87 25 10.35 33.36 11.42 12.21 30.99 16.62 45.78 7.97 12.36-6.99 23.38-19.93 22.94-34.81-0.44-2.23-1.33-4.34-1.95-6.52m0 0c-2.21-4.42-4.43-8.84-6.34-13.39M23.34 82.73c1.07 18.78 7.15 36.83 12.73 54.65 5.69 14.9 11.29 30.19 20.52 43.32 6.83 8.37 16.12 17.79 27.76 17.14 13.92-2.97 23.77-15.09 30.34-27 12.66-25.56 21.98-52.94 26.45-81.15C144.27 67.18 135.42 41.5 114.72 30.19 91.98 18.1 61.67 19.61 41.59 36.25 29.04 48.16 22.77 65.59 23.34 82.73Z" style="fill:none;stroke-linejoin:round;stroke-width:3;stroke:#000"/><path d="M50.28 170.73 49.3 173.01 47.55 176.78 45.75 180.49 43.94 184.12" stroke-opacity="1" stroke-linejoin="round" stroke-linecap="butt" stroke-width="3" stroke="rgb(0, 0, 0)" fill="none"/></g><g transform="translate(2475, 5888)"><path d="M141.42 73.69C139.71 56.7 131.43 39.13 115.88 30.79 93.99 18.79 65.49 19.62 44.67 33.56 30.11 44.1 23.42 62.66 23.21 80.16 22.99 95.94 28.2 111.11 32.31 126.16c4.44 15.36 10.85 30.03 17.73 44.43-2.57 6.67-7.36 12.78-7.77 20.06-0.21 7.52 3.36 14.49 7.68 20.43 6.11 7.88 14.47 14.21 24.23 16.7 8.25 2.01 17.18 0.89 24.7-3.04 9.35-4.73 16.86-12.84 21.33-22.26 1.86-4.47 3.06-9.36 2.34-14.17-1.35-6.39-5.42-11.86-7.49-17.88 8.36-17.22 15.51-35.04 20.31-53.6 3.77-14.04 7.82-28.47 6.06-43.15z" fill="#448eff"/><path d="m44.16 182.79c-5.68 12.95 2.86 26.79 12.35 35.37 11.23 10.67 29.15 14.15 42.9 6.33 12.43-6.85 23.43-19.7 23.28-34.5-0.02-2.54-1.23-4.79-1.85-7.2m0 0c-2.03-4.03-4.08-8.05-5.87-12.19m-68.19-6.97c6.04 14.39 16.01 28.63 31.09 34.38 12.69 2.75 23.14-7.65 30.4-16.74 4.09-5.4 7.33-11.41 9.94-17.64m-0.03 0.06c11.38-24.53 20.04-50.62 23.46-77.51 1.58-21.18-6.58-45.13-26.26-55.56C91.63 17.68 59.25 19.74 39.06 38.4 22.5 55.61 20.12 82.06 26.37 104.2 31.26 124.61 37.64 144.76 46.81 163.68" style="fill:none;stroke-linejoin:round;stroke-width:3;stroke:#000"/><path d="M50.03 170.59 49.46 171.91 47.74 175.61 45.95 179.23 44.16 182.79" stroke-opacity="1" stroke-linejoin="round" stroke-linecap="butt" stroke-width="3" stroke="rgb(0, 0, 0)" fill="none"/></g><g transform="translate(2475, 6144)"><path d="M140.25 65.74C136.92 51.57 129.06 37.58 115.72 30.73 93.83 19.08 65.69 19.88 44.81 33.43 31.3 43 24.54 59.72 23.31 75.82 21.75 93.32 27.76 110.23 32.38 126.84c4.4 15.04 10.66 29.43 17.43 43.54-2.57 6.24-7.01 12.06-7.29 18.96-0.18 7.54 3.35 14.54 7.69 20.49 6.07 7.86 14.36 14.2 24.07 16.7 7.28 1.79 15.02 1.06 21.94-1.81 10.31-4.49 18.58-13.02 23.56-23.03 1.71-4.14 2.9-8.39 2.75-12.9-0.68-6.67-4.76-12.33-7.32-18.41 8.22-16.81 15.18-34.25 20-52.35 4.26-15.21 8.58-31.01 6-46.93C140.99 69.3 140.56 67.53 140.25 65.74Z" fill="#448eff"/><path d="M140.25 65.74 140.05 64.96 139.54 63.1" stroke-opacity="1" stroke-linejoin="round" stroke-linecap="butt" stroke-width="3" stroke="rgb(0, 0, 0)" fill="none"/><path d="m26.01 61.07c-4.19 13.75-3.63 28.57-0.02 42.38 4.93 20.38 11.2 40.51 20.32 59.44 4.05 9.58 9.32 18.78 16.87 26.05 3.91 3.83 8.41 7.23 13.53 9.18 3.14 0.7 6.28 1.72 9.43 0.46 3.7-0.53 6.91-2.73 9.97-4.72 9.96-7.5 17.14-18.11 21.92-29.52 6.82-14.24 12.36-29.06 16.6-44.27 4.02-14.72 8.68-29.81 6.99-45.27C141.24 70.14 140.32 65.55 138.99 61.07" style="fill:none;stroke-linejoin:round;stroke-width:3;stroke:#000"/><path d="M137.24 56.15 138.79 60.43 138.99 61.07 138.92 60.88 138.91 60.86 137.24 56.15 137.22 56.09 137.01 55.53 134.72 50.5 131.89 45.58 128.54 40.98 124.64 36.95 120.19 33.43 115.16 30.39 109.55 27.79 103.35 25.62 96.68 23.94 89.68 22.87 82.5 22.48 75.32 22.87 68.32 23.94 61.65 25.62 55.46 27.79 49.84 30.39 44.81 33.43 40.36 36.95 36.46 40.98 33.11 45.58 30.29 50.5 27.98 55.53 27.78 56.09 27.76 56.15 26.01 61.07 26.21 60.43 27.76 56.15" stroke-opacity="1" stroke-linejoin="round" stroke-linecap="butt" stroke-width="3" stroke="rgb(0, 0, 0)" fill="none"/><path d="M120.62 181.43 118.85 177.96 117.09 174.42 115.38 170.8 115.2 170.37" stroke-opacity="1" stroke-linejoin="round" stroke-linecap="butt" stroke-width="3" stroke="rgb(0, 0, 0)" fill="none"/><path d="M44.38 181.43 42.43 187.92 42.87 194.94 45.39 202.14 49.58 209.12 55.02 215.43 61.2 220.58 67.97 224.43 75.15 226.82 82.53 227.65 89.91 226.82 97.07 224.43 103.83 220.58 109.99 215.43 115.42 209.12 119.61 202.14 122.13 194.94 122.57 187.92 120.62 181.43" stroke-opacity="1" stroke-linejoin="round" stroke-linecap="butt" stroke-width="3" stroke="rgb(0, 0, 0)" fill="none"/><path d="M49.81 170.37 49.62 170.8 47.91 174.42 46.15 177.96 44.38 181.43" stroke-opacity="1" stroke-linejoin="round" stroke-linecap="butt" stroke-width="3" stroke="rgb(0, 0, 0)" fill="none"/></g><g transform="translate(2475, 6400)"><path d="M40.1 37.18 36.2 41.24 32.85 45.87 30.03 50.84 27.74 55.92 25.98 60.86 24.74 65.42 24.55 66.42z" fill_rule="evenodd" stroke="none" fill-opacity="1" fill="rgb(68, 142, 255)"/><path d="m132.55 127.5c3.86-13.18 8.12-26.41 9.39-40.14 0.97-15.74-2.59-32.2-12.26-44.9-2.32-2.89-5.22-5.38-8.05-7.76-4.61-3.29-9.48-6.27-14.95-7.91-13.97-4.88-29.41-5.32-43.68-1.46-6.46 1.74-12.76 4.32-18.13 8.38-3.43 2.16-6.21 5.22-9.05 8.06-9.76 12.52-13.61 28.81-12.8 44.49 0.87 12.91 4.84 25.34 8.37 37.72L32.45 127.5M23.92 69.69c-2.32 13.12-0.37 26.51 3.23 39.21 4.94 19.16 11.2 38.02 19.88 55.83 0.66 2.48 3.68 4.93 1.57 7.39-2.41 5.05-5.68 10.1-5.85 15.81-0.09 6.28 2.2 12.35 5.66 17.53 4.53 7.29 11.13 13.3 18.8 17.17 6.52 3.08 13.95 4.41 21.09 3.07 7.72-1.33 14.77-5.4 20.46-10.72 5.73-5.53 10.49-12.29 12.64-20.03 0.78-3.07 1.12-6.54 0.55-9.64-1.09-5.5-4.28-10.15-6.52-15.21 7.65-15.64 14.24-31.81 18.93-48.59 4.48-15.75 9.52-32.03 7.15-48.6C141.32 70.72 140.86 68.57 140.46 66.42 138.01 55.55 133.08 44.91 124.9 37.18" style="fill:#448eff;stroke-linejoin:round;stroke-width:3;stroke:#000"/><path d="m120.41 180.06c-1.1-2.11-2.19-4.23-3.25-6.36-0.6-1.19-1.15-2.4-1.73-3.6" style="fill:none;stroke-linejoin:round;stroke-width:3;stroke:#000"/><path d="m44.59 180.06c-2.02 5.11-2.54 10.85-0.58 16.06 2.99 9.85 10.15 18.05 18.49 23.84 7.47 4.84 16.64 7.39 25.51 5.78 13.47-2.28 24.61-12.27 30.85-24.11 2.44-5.02 3.97-10.67 3.16-16.27-0.63-1.74-1.07-3.54-1.62-5.3M35.62 137.24c4.19 12.2 9.63 23.94 15.29 35.52 4.45 8.38 10.59 15.91 18.15 21.67 2.33 1.64 4.93 3.04 7.53 4.15 2.81 0.41 5.62 1.84 8.42 0.72 2.59-0.37 5.03-1.14 7.21-2.62 3.62-1.77 6.63-4.55 9.54-7.28 6.79-6.67 11.91-14.84 15.67-23.55 5.57-11.81 10.72-23.85 14.47-36.38 1.03-3.19 0.27-0.81-0.32 1-0.72 2.26-1.46 4.51-2.21 6.76" style="fill:none;stroke-linejoin:round;stroke-width:3;stroke:#000"/><path d="M32.45 127.5 33.71 131.38 35.62 137.24 34.32 133.31 32.45 127.5" stroke-opacity="1" stroke-linejoin="round" stroke-linecap="butt" stroke-width="3" stroke="rgb(0, 0, 0)" fill="none"/><path d="m49.57 170.1c-0.78 1.63-1.54 3.26-2.37 4.87-0.85 1.71-1.74 3.4-2.61 5.1" style="fill:none;stroke-linejoin:round;stroke-width:3;stroke:#000"/></g><g transform="translate(2475, 6656)"><path d="M124.63 36.89C112.4 26.28 95.56 22.43 79.68 22.9 63.87 23.58 47.06 28.55 36.48 40.97 22.86 57.63 20.1 81.06 25.13 101.51c5.26 21.85 12.09 43.42 21.99 63.64 1.07 2.43 3.21 4.86 0.92 7.26-2.88 5.37-5.98 11.25-4.81 17.53 0.5 6.23 3.77 11.85 7.17 16.96 5.98 7.79 13.99 14.33 23.62 16.87 7.97 2.18 16.67 1.06 24.01-2.66 9.39-4.78 16.89-12.96 21.36-22.44 1.9-4.27 2.7-8.76 2.71-13.42-1.06-5.59-3.93-10.44-6.41-15.47 7.66-15.55 14.15-31.67 18.86-48.36 4.54-15.65 9.49-31.85 7.08-48.33C140.1 59.69 134.55 46.24 124.63 36.89Z" fill="#448eff"/><path d="M120.21 178.68 118.47 175.37 116.75 171.99 115.68 169.78" stroke-opacity="1" stroke-linejoin="round" stroke-linecap="butt" stroke-width="3" stroke="rgb(0, 0, 0)" fill="none"/><path d="m44.8 178.68c-5.47 13.14 3.05 27.17 12.65 35.88 11.31 10.94 29.84 13.91 43.25 5.06 11.64-7.28 21.6-19.95 21.33-34.24-0.41-2.29-1.25-4.46-1.82-6.71M32.59 46.21c-12.08 19.18-11.83 43.46-5.15 64.48 6.21 23.37 14.41 46.43 26.48 67.44 6.82 10.13 16.21 21.27 29.31 21.97 12.72-1.86 21.81-12.67 28.43-22.88 13.97-25.33 23.41-53.05 29.33-81.31C145.16 73.15 139.04 46.17 118.9 32.64 99.91 20.9 75.08 20.01 54.56 28.19 45.41 31.63 38.18 38.35 32.59 46.21Z" style="fill:none;stroke-linejoin:round;stroke-width:3;stroke:#000"/><path d="M49.32 169.78 48.25 171.99 46.53 175.37 44.8 178.68" stroke-opacity="1" stroke-linejoin="round" stroke-linecap="butt" stroke-width="3" stroke="rgb(0, 0, 0)" fill="none"/></g><g transform="translate(2475, 6912)"><path d="m135.64 118.23c4.31-14.47 8.34-29.55 6.12-44.77C140.19 59.41 134.28 45.21 123.43 35.85 110.93 25.66 94.07 22.36 78.27 23.11 62.55 23.94 45.77 29.13 35.68 41.89 22.47 58.91 19.98 82.29 25.2 102.74c5.42 21.9 12.39 43.51 22.46 63.75 2.32 2.55 0.4 5.07-0.96 7.56-2.56 4.51-4.15 9.77-3.2 14.96 0.71 6.2 3.9 11.87 7.44 16.91 5.85 7.63 13.76 13.97 23.16 16.48 7.19 1.98 14.93 1.2 21.78-1.69 10.25-4.61 18.47-13.26 23.22-23.38 1.89-4.41 2.91-9.13 2.61-13.91-0.92-5.07-3.46-9.49-5.8-14.01 7.99-16.09 14.58-32.86 19.4-50.17 0.1-0.34 0.2-0.68 0.3-1.02z" fill="#448eff"/><path d="M142.09 76.67 141.75 73.43 141.64 72.37 141.46 70.77 140.68 66.45 139.48 61.82 137.74 56.8 135.48 51.64 132.68 46.59 129.32 41.89 128.75 41.1 124.89 37.02 120.46 33.48 115.43 30.45 114.88 30.16 109.37 27.68 103.24 25.67 96.62 24.17 89.76 23.25" stroke-opacity="1" stroke-linejoin="round" stroke-linecap="butt" stroke-width="3" stroke="rgb(0, 0, 0)" fill="none"/><path d="M75.24 23.25 78.27 23.11 82.5 22.9 86.73 23.11 89.76 23.25 89.65 23.24 86.73 23.11" stroke-opacity="1" stroke-linejoin="round" stroke-linecap="butt" stroke-width="3" stroke="rgb(0, 0, 0)" fill="none"/><path d="M120.01 177.28 118.29 174.05 116.58 170.75 115.94 169.42" stroke-opacity="1" stroke-linejoin="round" stroke-linecap="butt" stroke-width="3" stroke="rgb(0, 0, 0)" fill="none"/><path d="M23.25 73.43 23.09 74.86 22.91 76.67" stroke-opacity="1" stroke-linejoin="round" stroke-linecap="butt" stroke-width="3" stroke="rgb(0, 0, 0)" fill="none"/><path d="m78.27 23.11c-19.07 0.67-39.61 9.14-48.09 27.33-9.88 18.57-8.97 40.78-2.92 60.41 6.5 23.9 14.95 47.54 27.56 68.94 6.5 9.2 15.03 19.08 26.85 20.6 11.69-0.15 20.43-9.84 27.06-18.44 9.55-14.75 16.02-31.31 21.97-47.77 5.04-16.67 11.37-33.46 11.64-51.06 0-3.24-0.2-6.47-0.58-9.69M45 177.28c-5.14 12.46 2.29 25.61 10.98 34.41 10.11 10.37 26.32 15.31 39.91 9.02 12.4-5.65 22.33-17.09 25.53-30.41 0.88-4.61 0-8.68-1.4-13.02" style="fill:none;stroke-linejoin:round;stroke-width:3;stroke:#000"/><path d="M49.06 169.42 48.42 170.75 46.71 174.05 45 177.28" stroke-opacity="1" stroke-linejoin="round" stroke-linecap="butt" stroke-width="3" stroke="rgb(0, 0, 0)" fill="none"/></g><g transform="translate(2475, 7168)"><path d="M141.64 71.35C139.55 58.33 134.06 45.21 124.05 36.32 111.98 25.85 95.29 22.61 79.71 23.02 63.83 23.53 46.96 28.41 36.34 40.91 24.09 56.18 20.46 76.93 23.57 95.95c3.49 17.16 8.8 33.94 15 50.3 3.01 7.77 6.67 15.25 10.23 22.78-2.94 5.4-6.24 11.3-5.13 17.65 0.42 6.58 3.82 12.58 7.52 17.89 5.82 7.6 13.66 13.94 23.02 16.45 6.97 1.9 14.5 1.26 21.15-1.55 9.81-4.19 17.64-12.26 22.61-21.62 2.46-4.88 3.86-10.34 3.53-15.81-0.86-4.71-3-8.89-5.31-13.03 8.54-16.95 15.21-34.77 20.3-53.04 3.96-13.26 7.31-27.06 5.53-40.99C141.9 73.78 141.77 72.56 141.64 71.35Z" fill="#448eff"/><path d="M119.81 175.86 118.11 172.72 116.42 169.49 116.2 169.03" stroke-opacity="1" stroke-linejoin="round" stroke-linecap="butt" stroke-width="3" stroke="rgb(0, 0, 0)" fill="none"/><path d="M44.31 33.64C26.82 46.5 20.94 70.08 22.88 90.82c0.99 9.67 3.92 18.97 6.52 28.29-0.57-1.99-1.15-3.98-1.7-5.98M122.49 35.07C106.84 22.94 85.37 21.05 66.43 24.53 57.87 26.32 49.3 29.4 42.51 35.07m2.68 140.79c-5.49 14.36 4.21 29.21 15.03 38.08 11.84 9.86 30.38 11.14 42.63 1.28 11.92-8.4 22.64-24.37 16.97-39.36M29.41 119.12c6.66 22.03 14.66 44.03 27.23 63.42 6.37 8.57 15 17.6 26.3 18.17 14.34-2.01 24.02-14.81 30.64-26.62 12.32-23.13 20.91-48.14 26.94-73.6C145.74 77.03 140.86 48.8 120.69 33.64" style="fill:none;stroke-linejoin:round;stroke-width:3;stroke:#000"/><path d="M48.8 169.03 48.58 169.49 46.89 172.72 45.19 175.86" stroke-opacity="1" stroke-linejoin="round" stroke-linecap="butt" stroke-width="3" stroke="rgb(0, 0, 0)" fill="none"/></g><g transform="translate(2475, 7424)"><path d="M141.83 71.96C139.66 58.33 133.91 44.53 123.2 35.45 111.56 25.84 95.85 22.91 81.11 22.97 66.2 23.37 50.22 26.95 39.28 37.75 30.01 47.07 24.84 59.98 23.08 72.88c-1.63 12.12-0.22 24.42 3.25 36.1 5.5 20.5 12.54 40.65 22.19 59.59-2.89 5.04-5.65 10.74-4.61 16.7 0.43 6.59 3.82 12.6 7.52 17.93 5.78 7.57 13.56 13.91 22.88 16.42 6.91 1.89 14.38 1.24 20.96-1.55 9.74-4.2 17.51-12.24 22.45-21.54 2.48-4.89 3.88-10.37 3.57-15.85-0.82-4.35-2.56-8.31-4.82-12.09 10.84-21.34 18.5-44.16 24.14-67.39 2.31-9.57 2.37-19.48 1.21-29.22z" fill="#448eff"/><path d="M119.62 174.44 117.94 171.37 116.48 168.57" stroke-opacity="1" stroke-linejoin="round" stroke-linecap="butt" stroke-width="3" stroke="rgb(0, 0, 0)" fill="none"/><path d="m45.38 174.44c-5.35 13.85 3.71 28.33 13.99 37.19 10.5 9.35 26.74 12.21 39.13 4.87 12.45-7.1 22.96-20.36 22.81-35.21-0.24-2.35-1.18-4.54-1.68-6.84M27.22 112.3c6.67 23.61 15.18 46.97 27.77 68.11 6.46 9.24 15.05 19.01 26.84 20.57 11.86-0.42 20.69-10.26 27.23-19.2 8.61-13.41 14.66-28.33 20.36-43.16 5.36-15.66 10.77-31.54 12.85-48.03C144.22 69.31 137.64 45.19 119.35 32.51 99.65 20.78 74.26 20.18 53.19 28.53 33.92 36.28 24.09 57.4 22.64 77.08 21.98 85.31 22.6 93.59 24.47 101.63" style="fill:none;stroke-linejoin:round;stroke-width:3;stroke:#000"/><path d="M24.47 101.63 26.21 108.53 27.22 112.3 25.35 105.1 24.47 101.63" stroke-opacity="1" stroke-linejoin="round" stroke-linecap="butt" stroke-width="3" stroke="rgb(0, 0, 0)" fill="none"/><path d="M48.52 168.57 47.06 171.37 45.38 174.44" stroke-opacity="1" stroke-linejoin="round" stroke-linecap="butt" stroke-width="3" stroke="rgb(0, 0, 0)" fill="none"/></g><g transform="translate(2475, 7680)"><path d="M114.77 29.7C94.89 20.57 70.79 20.38 50.86 29.43c-18.97 9.1-27.7 30.94-28.52 50.91-0.8 20.65 7.21 40.2 13.52 59.47 3.58 9.65 7.76 19.06 12.37 28.26-6.86 9.43-4.65 22.2 1.76 31.19 8.68 14.17 26.8 24.42 43.31 18.06 14.89-5.86 27.39-20.5 27.85-36.91-1.75-7.84-6.28-14.1-0.08-21.2 9.1-20.16 16.3-41.28 20.69-62.97 3.32-21.5-1.7-46.15-18.6-60.98C120.59 33.1 117.77 31.22 114.77 29.7Z" fill="#448eff"/><path d="m117.78 170.01c-0.34-0.64-0.67-1.29-1-1.93" style="fill:none;stroke-linejoin:round;stroke-width:3;stroke:#000"/><path d="m119.44 172.99c-0.67-1.21-1.34-2.43-2-3.64" style="fill:none;stroke-linejoin:round;stroke-width:3;stroke:#000"/><path d="m45.56 172.99c-5.29 14.05 3.86 28.6 14.35 37.47 10.88 9.71 27.96 11.84 40.31 3.54 11.71-7.67 22.03-21.02 20.63-35.67-0.47-1.78-0.93-3.56-1.4-5.34M44.49 33.15C25.68 47.41 19.83 73.26 23.16 95.7c3.46 18.55 9.64 36.54 16.62 54.04 7.53 16.63 14.22 35.11 29.58 46.22 7.48 6.81 19.04 6.57 26.54-0.09C111.74 183.95 118.41 164.58 126.24 147.2 133.26 128.7 140.13 109.79 142.49 90.05 144.19 68.26 137.1 43.55 117.64 31.43 96.42 20.85 69.85 19.5 48.62 30.66 47.24 31.49 45.86 32.32 44.49 33.15Z" style="fill:none;stroke-linejoin:round;stroke-width:3;stroke:#000"/><path d="m47.56 169.35c-0.67 1.21-1.34 2.43-2 3.64" style="fill:none;stroke-linejoin:round;stroke-width:3;stroke:#000"/><path d="m48.23 168.08c-0.34 0.64-0.67 1.29-1 1.93" style="fill:none;stroke-linejoin:round;stroke-width:3;stroke:#000"/></g><g transform="translate(2310, 3840)"><path d="M138.89 64.85C135.65 50.26 127.13 36.12 113.5 29.15 98.22 20.88 79.6 18.31 63 24.06 49.98 28.11 37.72 36.31 31.48 48.76c-8.16 14.8-9.19 32.58-5.44 48.84 3.9 20.29 9.55 40.29 18.25 59.08 2.26 5.18 4.54 10.39 7.7 15.1-3.08 9.38-8.18 18.05-11.28 27.35-0.56 6.3 1.63 12.46 5.19 17.6 5.2 8.04 13.06 14.4 21.97 17.9 8.96 3.47 19.1 3.73 28.17 0.49 9.32-3.11 17.53-9.42 23.33-17.32 3.72-5.05 6.62-11.03 6.37-17.44-0.85-6.72-5.06-12.61-7.5-18.9-1.88-4.21-3.55-8.52-5.04-12.88 10.66-20.32 19.55-41.82 23.73-64.49 2.84-12.9 4.77-26.15 1.98-39.25z" fill="#448eff"/><path d="m51.99 171.78c-2.53 7.15-5.71 14.04-8.89 20.92m0 0c-6.41 11.47 1.37 24.76 10.02 32.59 14.83 15.07 40.96 16.08 56.88 2.14 8.83-6.92 17.07-17.72 15.31-29.53-0.44-1.63-1.14-3.17-1.66-4.77m0 0c-3.87-8.02-7.66-16.1-10.49-24.55M50.52 29.45C29.16 41 20.81 67.99 24.9 90.86c4.79 28.45 12.94 56.84 27.73 81.79 6.82 10.01 17.31 19.98 30.21 19.58 18.2-3.15 29.63-20.02 36.51-35.82 11.39-24.54 19.83-51.13 20.9-78.32m0.02 2.42C141.09 59.26 130.58 36.22 110.26 27.52 92.9 18.95 71.81 18.77 54.46 27.45 52.27 28.48 50.1 29.59 48.08 30.94" style="fill:none;stroke-linejoin:round;stroke-width:3;stroke:#000"/></g><g transform="translate(2145, 3840)"><path d="m49.7 29.72c-15.59 8.49-24.31 26.06-25.77 43.3-1.65 15.84 3.21 31.35 6.7 46.62 4.31 16.99 10.68 33.45 18.49 49.12 1.48 2.5 4.02 4.88 1.8 7.73-2.81 7.6-6.77 14.82-9.45 22.41-0.66 6.08 1.19 12.14 4.54 17.2 5.07 8.37 13.02 15.07 22.16 18.57 8.93 3.55 19.05 3.61 28.1 0.45 9.25-3.13 17.43-9.28 23.34-17.01 3.83-5.03 6.9-10.98 6.81-17.44-0.64-6.97-5.13-12.99-7.65-19.45-2.12-4.68-3.92-9.5-5.58-14.36 10.53-20.13 19.82-41.26 23.66-63.79C139.36 90.7 141.4 77.91 138.62 65.4 135.52 49.31 125.34 34 109.91 27.5 95.01 20.36 77.37 18.72 61.71 24.38 57.56 25.82 53.58 27.68 49.7 29.72Z" fill="#448eff"/><path d="m52.06 173.45c-2.34 6.49-5.21 12.77-8.04 19.05m0 0c-6.21 10.13-0.37 22.31 6.88 30.17 11.52 13.45 31.63 18.68 48 11.52 12.45-5.43 23.63-15.76 27.2-29.17 1.81-9.83-5.57-17.9-8.59-26.72-1.59-3.75-2.98-7.59-4.31-11.44M34.15 43.94c-12.59 17.74-12.41 41.09-6.97 61.33 5.16 23.28 12.31 46.5 24.3 67.22 6.66 9.89 16.74 19.63 29.33 19.93 17.06-2.63 28.91-17.51 35.87-32.25 12.93-25.45 22.02-53.24 23.31-81.91C140.17 56.8 128.45 34.22 107.63 26.41 84.65 16.02 55.53 20.95 37.86 39.09 35.67 41.48 33.77 44.14 32.24 47" style="fill:none;stroke-linejoin:round;stroke-width:3;stroke:#000"/></g><g transform="translate(1980, 3840)"><path d="m30.4 120.52c4.07 16.47 10.19 32.4 17.46 47.71 1.14 2.51 3.58 4.89 4.14 7.32-2.85 7.86-6.75 15.38-9.74 23.12-0.81 6.04 0.89 12.12 4.14 17.22 4.76 8.24 12.38 14.85 21.16 18.51 8.84 3.66 18.94 4.03 28.01 1 9.58-2.95 18.06-9.17 24.28-16.98 4.09-5.13 7.27-11.25 7.31-17.93-1.12-8.1-6.38-14.95-9.18-22.57-1.79-4.17-3.29-8.45-4.77-12.74 10.11-19.31 19.53-39.4 23.2-61.06C139.63 88.69 141.76 72.2 136.02 57.1 131.51 43.53 121.25 31.88 107.81 26.68 93.15 20.17 76.05 18.93 60.91 24.58 48.42 28.82 36.57 36.79 30.78 49 22.23 63.93 21.67 82.03 25.36 98.48c1.44 7.4 3.28 14.71 5.04 22.04z" fill="#448eff"/><path d="M24.8 95.27 25.36 98.48 25.62 99.76 25.56 99.4 25.53 99.28 24.8 95.27 24.29 92.52 24.16 91.66 23.92 89.72" stroke-opacity="1" stroke-linejoin="round" stroke-linecap="butt" stroke-width="3" stroke="rgb(0, 0, 0)" fill="none"/><path d="m51.99 175.54c-3.15 11.15-13.31 21.83-8.47 34.03 6.96 20.85 32.2 33.32 52.91 25.53 13.96-4.73 26.23-15.98 30.28-30.36 1.56-12.27-8.39-21.83-11.26-33.19-0.78-2.12-1.52-4.25-2.25-6.38M30.4 120.52c0.22 0.83 0.43 1.65 0.65 2.48M29.46 51.64c9.93-22.77 37.47-33.36 61.01-29.96 19.92 2.39 39.03 15.27 45.42 34.81 7.57 21.56 1.95 44.72-4 65.95-5.74 17.63-13.6 34.66-23.48 50.34-7.46 10.15-18.85 20.05-32.19 19.28C61.29 189.51 51.45 175.79 45.34 162.98 36.04 143.12 30.34 121.89 25.78 100.52M31.01 48.57c-7.6 13.2-9.29 29.1-6.72 43.95" style="fill:none;stroke-linejoin:round;stroke-width:3;stroke:#000"/><path d="M52.2 174.97 51.99 175.54 50.21 180.5" stroke-opacity="1" stroke-linejoin="round" stroke-linecap="butt" stroke-width="3" stroke="rgb(0, 0, 0)" fill="none"/><path d="M52.23 175.02 51.87 176.07" stroke-opacity="1" stroke-linejoin="round" stroke-linecap="butt" stroke-width="3" stroke="rgb(0, 0, 0)" fill="none"/></g><g transform="translate(1815, 3840)"><path d="M139.29 75.85C138.94 67.83 137.42 59.81 133.93 52.53 130.9 45.89 126.79 39.64 121.15 34.95 114.38 29.16 106.03 25.52 97.49 23.22 91.13 21.51 84.51 20.7 77.93 21 70.87 21.44 63.94 23.18 57.38 25.82 48.27 29.37 39.69 34.98 34.01 43.08 31.1 47.16 28.88 51.67 27.08 56.34" style="fill:none;stroke-linejoin:round;stroke-width:3;stroke:#000"/><path d="m28.11 53.84c-6.32 13.68-6.56 29.4-3.4 43.94 3.83 19.48 8.77 38.83 16.47 57.18 3.65 9.92 8.38 19.7 16.04 27.16 3.77 3.82 8.25 6.93 13.19 9.01 3.34 0.67 6.66 1.91 10.04 0.76 4.12-0.44 7.85-2.55 11.39-4.6 10.57-6.21 17.97-16.46 23.3-27.29 9.19-17.87 18.05-36.34 21.21-56.38 1.64-9.52 3.66-19.16 2.86-28.88m-1.18-9.94C134.79 49.87 125.85 35.52 111.78 28.68 96.17 20.62 77.22 18.29 60.59 24.63 47.55 28.87 35.5 37.58 29.72 50.32c-7.69 14.57-8.55 31.83-4.96 47.69 4.02 20.84 9.65 41.42 18.03 60.96 2.42 6.2 5.39 12.24 9.51 17.5-2.66 7.49-6.35 14.63-9.25 21.96-0.95 5.99 0.6 12.09 3.74 17.23 4.55 8.23 11.99 14.88 20.62 18.59 8.77 3.76 18.84 4.17 27.92 1.24 9.69-2.88 18.32-9.04 24.73-16.8 4.08-4.97 7.45-10.88 7.71-17.44-0.1-7.15-4.93-13.18-7.53-19.67-2.73-5.83-4.9-11.91-6.98-18 10.26-19.57 20.19-39.84 23.46-61.93 2.35-12.18 3.83-24.56 1.3-36.85z" style="fill:#448eff;stroke-linejoin:round;stroke-width:3;stroke:#000"/><path d="M44.51 194.8Z" style="fill:none;stroke-linejoin:round;stroke-width:3;stroke:#000"/></g><g transform="translate(1650, 3840)"><path d="M138.5 69.05C136.22 52.67 127.09 36.41 111.88 28.92 96.19 20.67 77.01 18.24 60.23 24.66 46.87 28.92 34.79 38.12 28.95 51.1c-7.34 14.65-8.19 31.77-4.57 47.57 4.03 20.54 9.43 40.87 17.55 60.21 2.49 6.83 5.96 13.3 10.43 19.05-2.4 6.93-5.84 13.5-8.51 20.27-1.08 5.95 0.31 12.06 3.34 17.25 4 7.7 10.63 13.85 18.26 17.91 7.02 3.33 14.9 4.77 22.63 3.78 11.38-1.47 21.87-7.38 29.84-15.54 4.34-4.58 8.28-9.96 9.86-16.13 1.28-4.29 0.45-8.72-1.42-12.7-5.23-9.86-9.68-20.12-13.08-30.75 10.05-18.8 19.95-38.23 23.18-59.54 1.92-11.01 3.75-22.25 2.03-33.42z" fill="#448eff"/><path d="m49.95 184.11c-2.5 7.17-8.06 13.77-6.16 21.79 3.96 20.09 25.43 34.6 45.59 31.09 16.71-2.98 32.2-14.64 38.28-30.67 1.27-4.27 0.68-8.13-0.62-12.24m0 0c-5.45-10.31-10.24-20.93-13.75-32.07m25.2-92.96C136.17 50.91 124.89 33.51 107.43 26.76 85.17 16.41 57.13 20.43 38.96 37 23.16 52.9 19.35 77.37 24.4 98.58 29.19 123.16 35.95 147.65 47.14 170.14c6.38 10.72 16.38 21.98 29.8 22.16 18.31-2.85 30.96-18.66 38.58-34.43 10.34-19.2 19.35-39.52 21.96-61.37 1.47-9.05 2.42-18.33 1.02-27.45z" style="fill:none;stroke-linejoin:round;stroke-width:3;stroke:#000"/><path d="M52.36 177.93 51.52 180.22 49.95 184.11 49.74 184.62" stroke-opacity="1" stroke-linejoin="round" stroke-linecap="butt" stroke-width="3" stroke="rgb(0, 0, 0)" fill="none"/></g><g transform="translate(1485, 3840)"><path d="M110.05 28.11C94.57 20.57 76.05 18.44 59.76 24.71 46.35 29.06 34.3 38.4 28.45 51.44c-7.33 14.75-8 32.01-4.41 47.89 3.77 19.01 8.39 37.91 15.68 55.91 2.98 8.58 6.79 17.04 12.79 23.96-2.23 6.57-5.74 12.74-7.9 19.26-1.28 6.09 0.45 12.31 3.42 17.66 5.03 9.21 13.63 16.51 23.71 19.61 8.58 2.7 17.96 1.99 26.38-0.99 10.9-4.14 20.52-11.71 26.87-21.49 2.42-4.17 4.38-8.87 4.06-13.72-1.22-7.69-6.34-13.93-9.04-21.13-2.59-5.82-4.62-11.87-6.64-17.91 10.06-18.49 20.08-37.61 23.11-58.71 3.17-16.1 4.35-33.53-2.78-48.8C129.07 42.16 120.84 33.02 110.05 28.11Z" style="fill:#448eff;stroke-opacity:0.96;stroke-width:3;stroke:#000"/><path d="m22.7 70.17c-2.76 16.43 2.17 32.71 5.61 48.64 3.52 15.86 9.16 31.14 15.26 46.16 4.34 9.26 10.64 18.05 19.41 23.52 3.38 2.35 7.4 3.41 11.42 3.88 3.96-0.45 7.84-1.17 11.34-3.17 11.11-5.05 19.69-14.56 25.56-25.1 8.39-15.01 16.71-30.3 21.73-46.82 3.15-11.71 5.31-23.76 5.98-35.88C139.61 65.84 134.78 49.85 124.2 38.24 121.27 35.11 117.84 32.46 114.14 30.31" style="fill:none;stroke-linejoin:round;stroke-width:3;stroke:#000"/><path d="M110.05 28.11 109.05 27.59 103.41 25.25 97.25 23.31 90.72 21.86 83.98 21.05 77.19 20.98 70.54 21.77 64.16 23.27 63.02 23.6 57.02 25.64 51.54 28.1 46.67 30.83 42.39 33.81 38.68 37.03 38.17 37.49 35.35 40.53 32.86 43.86 32.55 44.31 30.02 48.38 27.83 52.66 26.01 57 24.59 61.27 23.54 65.48" stroke-opacity="1" stroke-linejoin="round" stroke-linecap="butt" stroke-width="3" stroke="rgb(0, 0, 0)" fill="none"/><path d="m52.52 179.2c-0.68 1.86-1.44 3.68-4.37 10.44C46.5 193.57 44.72 197.49 44.72 197.49m83.12-3.16c-3.14-6.06-6.29-12.13-8.91-18.43-1.89-4.58-3.49-9.27-5.08-13.96" style="fill:none;stroke-linejoin:round;stroke-width:3;stroke:#000"/><path d="M114.4 163.62 113.85 161.94 113.37 160.49" stroke-opacity="1" stroke-linejoin="round" stroke-linecap="butt" stroke-width="3" stroke="rgb(0, 0, 0)" fill="none"/></g><g transform="translate(1320, 3840)"><path d="M137.68 65.99C134.66 50.09 124.87 34.81 109.76 28.07 95.14 21.18 78.03 18.66 62.44 23.68 48.03 27.94 34.39 37.24 28.2 51.35 20.35 66.44 20.21 84.24 23.76 100.54c3.57 19.09 8.55 37.92 15.65 56.02 2.88 8.72 7.03 17.14 13.24 23.98-2.1 6.02-5.26 11.7-7.21 17.72-1.42 6.04 0.16 12.29 3.01 17.68 4.81 9.2 13.21 16.57 23.16 19.73 7.89 2.55 16.48 2.18 24.4-0.16 11.13-3.55 21.02-10.73 28.02-20.08 3.2-4.56 5.86-9.97 5.69-15.62-0.86-7.32-5.82-13.15-8.44-19.88-3.17-6.77-5.49-13.89-7.78-20.99 10.29-18.25 20.26-37.3 23.23-58.31 1.94-11.44 3.36-23.15 0.96-34.64z" fill="#448eff"/><path d="m52.65 180.53c-2.14 6.17-5.42 11.95-7.35 18.14-2.56 20.71 17.79 39.13 37.79 38.74 19.42-0.34 38.67-13.11 45.71-31.3 3.08-7.86-1.74-14.28-5-20.89m0.25 0.51c-4.43-8.56-7.69-17.62-10.56-26.8M21.77 86.98c3.67 28.23 11.26 56.06 22.88 82.05 5.99 10.59 15.02 21.88 27.98 23.16 16.61-1.18 29.71-14.19 37.78-27.87 12.18-21.08 24.15-43.16 26.99-67.74 3.6-19.41 1.41-41.22-11.97-56.64C113.94 26.65 95.52 21.14 78.42 21.05 56.95 21.77 34.51 33.75 26.65 54.62 22.13 65.08 20.75 76.74 21.84 88.03" style="fill:none;stroke-linejoin:round;stroke-width:3;stroke:#000"/></g><g transform="translate(1155, 3840)"><path d="M119.73 34.52C109.05 25.94 95.2 21.98 81.69 21.04 64.87 20.68 47.67 27.16 35.87 39.27 23.07 53.93 18.79 74.68 22.03 93.61c3.56 21.58 8.89 42.91 16.74 63.35 2.91 9.17 7.43 17.88 14 24.96-1.89 5.81-5.3 11.15-6.64 17.09-1.58 6.67 0.82 13.59 4.17 19.33 4.85 8.17 12.6 14.5 21.65 17.43 9.96 3.01 20.91 1.78 30.28-2.64 9.33-4.13 17.5-10.94 23.38-19.26 2.46-3.77 4.21-7.82 4.81-12.3 0.13-4.88-2.17-9.25-4.49-13.42-5.24-9.74-9.09-20.13-12.28-30.7 9.95-17.33 19.74-35.37 22.77-55.38 3.32-16.3 4.2-33.97-3.08-49.39C130.04 45.83 125.75 39.3 119.73 34.52Z" fill="#448eff"/><path d="m52.77 181.92c-2.75 7.93-8.05 15.48-6.35 24.25 0.31 9.92 7.41 18.64 15.12 24.31 14.51 10.88 35.18 7.93 49.32-2.13 7.73-5.75 16.09-12.96 18.26-22.67 0.34-5.47 1.45-11.07-2.3-15.76m0.24 0.48C121.44 179.91 116.99 168.88 113.65 157.46M43.97 32.44C26.29 44.36 19.36 67.58 21.37 88.02c3.54 27.3 10.94 54.13 21.62 79.49 5.77 11.36 15.39 23.82 29.14 24.62 17.47-1.83 30.72-15.78 38.98-30.33C122.9 141.85 134.38 120.88 137.26 97.51 141.25 77.25 138.67 54.18 124.01 38.57 111.93 25.88 93.47 20.75 76.34 21.13 63.76 21.93 51.33 26.55 41.38 34.31" style="fill:none;stroke-linejoin:round;stroke-width:3;stroke:#000"/></g><g transform="translate(990, 3840)"><path d="M132.98 52.1C127.42 39.8 116.74 30.11 103.93 25.84 90.36 20.73 75.13 19.26 61.2 23.89 46.95 28.32 33.48 37.69 27.33 51.7c-7.23 14.57-8.27 31.49-4.91 47.24 3.47 18.56 7.69 37.05 14.43 54.72 3.35 10.75 7.91 21.54 16.12 29.5-2.36 7.12-7.14 13.81-6.58 21.55 0.77 9.82 6.53 18.78 14.08 24.86 7.3 5.82 16.82 8.55 26.1 7.75 10.1-0.8 19.76-5.11 27.71-11.3 6.47-4.98 12.26-11.24 15.38-18.84 1.16-3.52 1.86-7.06 0.72-10.69-1.86-5.8-5.56-11-7.86-16.7-3.62-7.62-6.12-15.68-8.69-23.7 9.75-16.56 19.23-33.84 22.41-53.04 3.69-16.89 4.55-35.02-3.26-50.95z" fill="#448eff"/><path d="M130.16 195.1 126.15 187.32" stroke-opacity="1" stroke-linejoin="round" stroke-linecap="butt" stroke-width="3" stroke="rgb(0, 0, 0)" fill="none"/><path d="m47.29 196.86c-4.55 18.86 12.01 37.55 30.28 40.17 20.34 2.67 40.87-9.68 50.83-27.08 2.46-4.55 3.19-9.86 1.76-14.86m-2.4-4.46c-5.8-11.05-10.43-22.57-13.93-34.55M36.38 152.26c4.69 15.54 12.65 32.95 28.95 38.93 10.77 3.02 21.46-3.68 29.55-10.22 12.9-11.18 20.05-27.2 28.38-41.76 10.34-19.05 15.78-40.79 15.69-62.45-0.15-2.89-0.46-5.77-0.96-8.62m0.12 0.72C136.27 57.25 131.04 46.01 122.92 37.46 111.61 26.6 95.65 21.85 80.28 21.06 63.67 20.94 46.79 27.58 35.26 39.65 22.45 54.52 18.35 75.5 21.66 94.57c3.49 19.6 7.7 39.22 14.79 57.88" style="fill:none;stroke-linejoin:round;stroke-width:3;stroke:#000"/><path d="m52.97 183.16c-0.7 1.85-1.46 3.67-2.21 5.5-1.14 2.74-2.3 5.47-3.47 8.2" style="fill:none;stroke-linejoin:round;stroke-width:3;stroke:#000"/></g><g transform="translate(825, 3840)"><path d="M136.96 62.87C133.09 48.42 123.78 34.9 109.94 28.52 94.94 21.41 77.23 18.59 61.2 23.83 47.49 28.05 34.49 36.75 27.93 49.85 19.85 65 18.47 82.98 22.07 99.6 25.36 117.65 29.35 135.62 35.81 152.82 39.34 164.38 44.09 176.12 53.17 184.46c-2.73 7.56-7.64 15.13-5.67 23.47 1.49 8.4 6.5 16.06 13.03 21.47 7.15 5.9 16.59 8.68 25.8 7.96 11.64-0.84 22.63-6.26 31.37-13.85 5.23-4.52 10.01-10 12.53-16.49 1.26-3.35 1.81-6.75 0.85-10.26-1.74-5.86-5.48-11.08-7.8-16.79-3.92-8.07-6.48-16.68-9.29-25.17 10.42-16.89 19.8-34.93 22.95-54.75 2.53-12.26 3.34-24.97 0.01-37.18z" fill="#448eff"/><path d="m139 76.01c-0.48-9.66-3.16-19.2-8.02-27.57-2.98-5.35-6.93-10.18-11.68-14.06-4.95-3.75-10.43-6.83-16.33-8.82-7.03-2.42-14.36-4.04-21.8-4.44-4.46-0.18-8.93 0.17-13.31 1.03-8.28 1.6-16.27 4.79-23.27 9.53C39.39 34.86 34.91 39.09 31.47 44.12" style="fill:none;stroke-linejoin:round;stroke-width:3;stroke:#000"/><path d="m48.17 196.66c-4.71 16.93 8.66 34.46 24.58 39.27 21.06 5.8 43.62-6.53 55.1-24.07 3.1-4.94 4.59-10.76 3.05-16.49m0 0c-6.94-12.96-12.82-26.43-16.9-40.57M32.91 42.16c-13.15 17.11-15.18 40.29-10.19 60.75 3.86 22.2 10.08 44.01 18.67 64.84 5.36 11.41 14.81 23.6 28.42 24.31 17.7-2.06 31.25-15.82 40.02-30.43 12.68-20.16 24.8-41.58 27.81-65.62 1.2-7.04 2.09-14.23 1.25-21.37" style="fill:none;stroke-linejoin:round;stroke-width:3;stroke:#000"/><path d="M53.17 184.46 51.69 188.19 49.94 192.45 48.17 196.66" stroke-opacity="1" stroke-linejoin="round" stroke-linecap="butt" stroke-width="3" stroke="rgb(0, 0, 0)" fill="none"/></g><g transform="translate(660, 3840)"><path d="M138.66 70.67C136.19 53.07 125.91 35.68 109.23 28.29 94.27 21.36 76.65 18.7 60.73 23.89 47.15 28.17 34.23 36.77 27.68 49.76 19.25 65.15 18.23 83.54 21.76 100.48c3.05 18.42 7.53 36.6 13.91 54.16 3.41 11.54 8.63 22.96 17.7 31.16-2.69 7.18-6.93 14.49-5.18 22.42 1.79 9.79 8.04 18.57 16.38 23.95 7.28 4.51 16.15 6.13 24.6 4.94 11.9-1.65 22.83-7.76 31.5-15.91 5.12-5.03 9.8-10.93 11.29-18.1 0.75-4.24-0.5-8.65-2.7-12.35-6.05-11.28-10.83-23.16-14.48-35.42-1.44-2.82 2.12-5.1 3.04-7.67 9.28-15.2 16.81-31.73 19.54-49.46C139.16 89.15 140.2 79.86 138.66 70.67Z" fill="#448eff"/><path d="m49.06 196.47c-5.19 16.87 8.09 34.91 24.17 39.61 20.09 5.31 41.08-5.83 53.33-21.48 5.11-6.48 7.79-15.82 3-23.2-0.22-0.45-0.44-0.91-0.66-1.36m0 0c-6.32-11.56-10.82-23.84-14.71-36.4m-79.28-1.34c4.54 15.24 11.65 32.64 27.67 38.71 11.28 3.21 22.45-3.91 30.98-10.6 13.37-11.96 21.47-28.38 30.44-43.62 9.87-18.62 15.81-39.73 15.25-60.89C138.1 54.91 125.64 33.59 105.12 26.51 86.46 18.73 64.17 19.24 46.8 30.09 30.57 39.03 21.79 57.07 20.19 75.01" style="fill:none;stroke-linejoin:round;stroke-width:3;stroke:#000"/><path d="m20.42 73.09c-1.02 6.9-0.71 13.92 0.29 20.81 1.83 12.36 4.34 24.62 7.42 36.73 2.1 8.34 5 16.45 7.77 24.58" style="fill:none;stroke-linejoin:round;stroke-width:3;stroke:#000"/><path d="M53.36 185.8 52.49 188.04 50.78 192.28 49.06 196.47" stroke-opacity="1" stroke-linejoin="round" stroke-linecap="butt" stroke-width="3" stroke="rgb(0, 0, 0)" fill="none"/></g><g transform="translate(495, 3840)"><path d="M33.29 40.91C20.84 56.21 17.26 77.11 20.52 96.25c3.14 19.99 7.71 39.79 14.56 58.86 3.53 11.78 8.77 23.91 18.64 31.71-2.55 6.8-6.33 13.72-4.9 21.21 1.66 10.33 8.31 19.72 17.33 24.97 8.18 4.6 18.05 5.57 27.11 3.36 10.3-2.22 19.7-7.81 27.45-14.85 5.23-5 10.06-10.86 11.74-18.05 0.89-4.24-0.26-8.72-2.39-12.48-6.02-11.18-10.94-22.91-14.52-35.1-2.09-2.87-0.11-5.29 1.59-7.73 8.88-14.38 16.54-29.8 19.67-46.54C139.87 89.27 140.96 76.19 137.43 63.83 133.44 48.38 123.1 34.05 108.05 27.85 96.4 22.69 83.28 20.11 70.57 21.66 56.51 23.58 42.84 30.33 33.29 40.91Z" fill="#448eff"/><path d="m49.97 196.28c-6.02 18.36 9.76 38.58 28.22 40.8 20.36 2.45 40.69-9.7 51.5-26.52 3.87-6.28 3.98-13.99 0.06-20.29m0 0C123.06 178.32 118.45 165.53 114.39 152.51M20.36 94.9c3.84 25.5 10.18 50.77 20.14 74.57 5.25 10.86 14.59 22.92 27.92 22.27 18-2.56 31.7-16.5 40.85-31.33 12.86-19.11 24.62-39.72 28.41-62.76 5.67-23-0.76-50.1-20.4-64.6C97.72 20.08 70.87 16.78 49.84 28.27 30.26 37.54 20.18 59.81 19.44 80.63 19.28 85.4 19.6 90.19 20.36 94.9Z" style="fill:none;stroke-linejoin:round;stroke-width:3;stroke:#000"/><path d="m53.72 186.81c-1.21 3.17-2.49 6.32-3.75 9.47" style="fill:none;stroke-linejoin:round;stroke-width:3;stroke:#000"/></g><g transform="translate(330, 3840)"><path d="M139.23 71.53C136.7 53.41 125.91 35.54 108.6 28.21 96.72 22.75 83.25 20.2 70.22 21.68 56.99 23.52 44.25 29.59 34.79 39.07 23.32 51.46 18.39 68.96 19.01 85.62c1.26 17.69 5.44 35.04 9.77 52.19 3.37 10.22 6.2 20.65 10.33 30.6 3.66 7.33 7.97 14.86 14.98 19.43-2.5 6.56-5.84 13.27-4.61 20.49 1.7 10.18 8.03 19.65 17.05 24.75 8.1 4.66 17.94 5.41 26.93 3.29 10.47-2.37 20.14-7.96 27.96-15.26 5.27-4.85 9.83-10.73 11.65-17.77 0.92-4.94-0.82-9.82-3.21-14.15-6.24-11.08-10.63-23.01-14.39-35.12-2.14-3.34 1.79-5.89 3.01-8.83 9.32-14.67 16.33-30.89 19.42-48.04 1.82-8.44 2.89-17.09 1.32-25.67z" fill="#448eff"/><path d="m50.88 196.1c-6.92 19.62 11.22 41.52 31.36 41.34 18.97 0.32 37.27-10.88 47.62-26.43 4.08-6.17 4.63-14.08 0.7-20.5m0 0c-7.01-12.33-11.79-25.61-15.93-39.12m-81.5-0.12c4.33 14.56 10 31.16 24.41 38.57 11.56 5.27 24-2.04 33.22-8.82 14.49-12.01 23.42-29.08 33.1-44.89 9.81-18.14 16.24-38.65 16.01-59.39C138.6 55.34 125.78 33.71 104.81 26.57 84.95 18.45 61.07 19.42 43.22 32.02 23.65 44.93 16.69 70.55 19.57 92.84 22.51 112.77 26.55 132.71 33.29 151.73" style="fill:none;stroke-linejoin:round;stroke-width:3;stroke:#000"/><path d="M54.09 187.84 52.51 191.95 50.88 196.1" stroke-opacity="1" stroke-linejoin="round" stroke-linecap="butt" stroke-width="3" stroke="rgb(0, 0, 0)" fill="none"/></g><g transform="translate(165, 3840)"><path d="M138.96 68.17C135.58 51.87 125.66 36.26 110.26 29.05 97.68 22.98 83.3 20.12 69.39 21.79 55.23 23.86 41.66 30.84 32.19 41.62 19.81 57.36 16.34 78.65 19.86 98.05c3.05 18.61 6.79 37.19 13.11 55.01 3.51 12.14 8.22 24.82 17.99 33.3 3.55 1.39 3.77 3.8 1.89 6.82-1.92 4.77-3.43 9.76-2.72 14.95 1.45 10.1 7.48 19.64 16.35 24.81 8.13 4.88 18.1 5.51 27.2 3.43 12.89-3.06 24.57-10.61 33.25-20.55 3.06-3.77 5.45-7.9 6.79-12.58 0.8-5.35-1.09-10.51-3.74-15.11-6.77-11.84-11.07-24.81-15.09-37.78 10.79-16.02 19.57-33.68 23.14-52.79 2.45-9.6 3.14-19.66 0.94-29.38z" fill="#448eff"/><path d="m51.8 195.92c-7.27 18.96 9.61 41.04 29.37 41.46 18.24 0.91 35.91-9.24 47-23.29 5.51-6.47 7.7-15.67 3.19-23.32m0 0C124.02 178.07 119.1 164.33 114.88 150.35M138.96 68.17C135.26 47.98 120.07 30.06 99.92 24.88 76.53 16.82 47.86 22.48 31.93 42.14 18.58 58.67 16.54 81.24 20.34 101.49c4.09 23.15 9.52 46.28 18.6 68.02 4.77 11.05 14.32 23.31 27.77 21.96 20.91-3.23 35.2-20.8 45.92-37.6 15.05-22.05 27.09-47.41 27.64-74.54C140.21 75.59 139.79 71.84 138.96 68.17Z" style="fill:none;stroke-linejoin:round;stroke-width:3;stroke:#000"/><path d="M54.47 188.9 53.39 191.79 51.8 195.92" stroke-opacity="1" stroke-linejoin="round" stroke-linecap="butt" stroke-width="3" stroke="rgb(0, 0, 0)" fill="none"/><path d="M54.66 189.04 54.65 189.08" stroke-opacity="1" stroke-linejoin="round" stroke-linecap="butt" stroke-width="3" stroke="rgb(0, 0, 0)" fill="none"/></g><g transform="translate(0, 3840)"><path d="M139.81 71C136.98 54.29 127.45 38.09 112.15 30.06 98.86 23.23 83.44 20.03 68.57 21.9 53.47 24.26 38.91 32.17 29.73 44.53 18.7 60.64 16.11 81.29 19.79 100.2c2.88 18.51 6.82 36.9 13.04 54.6 3.3 11.61 8 23.67 17.34 31.72 2.11 2.1 6.38 2.66 3.76 6.05-1.91 4.95-3.77 10.01-3.13 15.4 1.12 9.41 6.26 18.23 13.94 23.82 7.89 5.36 17.96 6.88 27.22 4.9 10.99-2 21.14-7.65 29.49-14.97 5.49-4.81 10.37-10.6 12.54-17.68 1.44-5.76-0.8-11.58-3.73-16.55-6.85-11.93-11.13-25.05-15.11-38.14 10.12-14.94 18.56-31.28 22.44-49.02 2.62-9.61 4.15-19.44 2.22-29.34z" fill="#448eff"/><path d="m55.01 189.62c-0.75 2.05-1.52 4.09-2.28 6.13M36.93 36.71C18.88 53.05 15.5 79.7 20.15 102.5 23.13 121.39 27.54 140.07 33.87 158.12m-1.05-3.33c4.06 13.75 9.92 29.65 24.19 35.6 12.56 3.73 24.94-4.04 34.37-11.58 15.58-14.02 26.15-32.56 36.24-50.68 7.8-16.5 13.77-34.73 12.72-53.17C138.63 59.2 131.18 43.68 118.4 33.96m3.2 2.76C105.34 23.19 82.22 18.4 61.77 23.33 52.46 25.83 43.74 30.53 36.6 37.01m16.14 158.74c-8.26 20.02 11.02 43.92 32.19 41.66 19.51-0.9 38.05-12.78 47.72-29.61 2.42-5.28 2.28-11.66-0.5-16.79m0 0c-7.63-12.99-12.77-27.26-17-41.66" style="fill:none;stroke-linejoin:round;stroke-width:3;stroke:#000"/></g><g transform="translate(2640, 3840)"><path d="M139.65 65.44C136.5 50.48 127.76 36.1 113.8 29.06 99.05 21.06 81.19 18.45 65.06 23.62 51.37 27.45 38.31 35.87 32.04 49.02c-8.94 15.67-8.55 34.68-4.6 51.78 3.42 19.65 10.06 38.58 18.74 56.5 1.77 3.83 3.56 7.64 5.65 11.3-3.25 10.58-9.1 20.1-12.62 30.56-0.1 4.45 0.77 8.69 2.73 12.7 5.43 10.43 14.89 18.66 25.84 22.91 7.19 2.64 14.96 3.33 22.49 1.96 10.34-2.21 19.72-8.16 26.3-16.42 3.87-4.89 7.26-10.74 7.68-17.06 0.92-6.03-3.02-11.15-5.1-16.54-2.22-4.89-4.33-9.84-6.13-14.91 6.86-11.2 11.38-23.66 16.05-35.88 5.42-16.5 9.59-33.49 11.79-50.73 0.61-6.59 0.05-13.24-1.19-19.73z" fill="#448eff"/><path d="m51.82 168.59c-2.83 8.45-6.62 16.53-10.49 24.55m0 0c-5.92 11.63 2.41 24.21 10.86 31.97 13.34 12.89 35.14 16.47 51.17 6.54 11.14-6.75 21.59-18.45 20.87-32.24-0.28-2.37-1.56-4.48-2.34-6.7m0 0c-3.18-6.88-6.36-13.77-8.89-20.92M116.92 30.95C94.5 16.29 62.88 18.04 42.48 35.46 26.25 49.92 22.17 73.71 26.13 94.3c4.38 26.54 13.36 52.36 26.65 75.74 7.21 10.95 18.18 22.05 32.13 22.33 17.64-2.75 28.79-19.15 35.35-34.46 10.63-24.09 18.22-49.73 20.76-75.98C141.87 61.58 133.15 39.41 114.48 29.45" style="fill:none;stroke-linejoin:round;stroke-width:3;stroke:#000"/></g><g transform="translate(2805, 3840)"><path d="M141.12 73.37C139.7 55.7 130.67 37.56 114.41 29.27 99.77 21.19 82.02 18.46 65.91 23.47 52.81 27.02 40.26 34.62 33.53 46.75 24.38 61.76 23.37 80.37 27.08 97.22c2.7 17.04 7.64 33.68 14.88 49.35 3.15 6.82 6.22 13.7 9.85 20.28-3.05 9.86-7.99 18.96-11.97 28.42-2.28 4.93-1.23 10.68 1.08 15.42 3.98 8.75 11.3 15.7 19.43 20.65 8.62 4.88 18.83 7.3 28.67 5.48 9.19-1.46 17.68-6.37 24.09-13.05 5.17-5.49 9.48-12.24 10.47-19.81 0.29-3.59-0.16-7.02-2.02-10.15-2.97-6.74-6.12-13.42-8.61-20.36 6.76-10.3 10.74-22.11 15.25-33.5 5.92-17.18 10.3-34.94 12.86-52.93 0.53-4.53 0.54-9.11 0.06-13.65z" fill="#448eff"/><path d="m51.81 166.85c-3 9.15-7.08 17.9-11.34 26.52m0 0c-5.65 11.8 3.01 24.21 11.56 31.9 13.68 12.93 35.98 16.42 52.03 5.85 10.97-7.09 21.17-19.31 19.27-33.17-0.78-1.82-1.56-3.63-2.34-5.45m0 0c-2.83-6.28-5.7-12.56-8.04-19.05M110.48 27.3C87.25 15.7 56.48 20.39 38.66 39.52 24.32 56.1 22.66 79.85 27.61 100.41c4.27 24.93 14.05 48.7 26.7 70.5 7.13 10.69 18.12 20.74 31.53 21.55 17.38-2.55 28.57-18.61 34.88-33.74 10.43-24.35 18.1-50.13 20.66-76.54C142.43 59.96 131.75 35.79 110.12 27.12" style="fill:none;stroke-linejoin:round;stroke-width:3;stroke:#000"/></g><g transform="translate(2970, 3840)"><path d="m137.69 107.65c3.47-14.75 6.18-30.33 1.97-45.23C135.89 48.66 127.5 35.47 114.35 29.09 100.12 21.37 83.01 18.58 67.33 23.18 53.93 26.55 41.03 34.12 34.01 46.36 25.26 60.62 23.72 78.17 26.83 94.35 29.27 110.2 33.19 125.87 39.85 140.51 43.55 148.85 47.46 157.12 51.79 165.16c-3.17 10.19-7.99 19.74-12.46 29.38-1.6 3.54-1.69 7.23-0.93 11 2.43 8.8 8.65 16.15 15.74 21.71 7.93 6.24 17.8 10.07 27.93 10.19 10.24 0 20.42-4.04 27.91-11.04 6.21-5.5 11.06-12.79 12.76-20.98 0.49-4.02 0.18-8.21-2.03-11.74-2.79-6.17-5.54-12.36-7.92-18.7 7.49-10.36 11.16-22.83 15.88-34.58 3.83-10.67 6.38-21.73 9.01-32.74zm-1.86 7.92c0.59-2.38 0.64-2.6 0 0z" fill="#448eff"/><path d="m51.79 165.16c-3.16 9.83-7.51 19.23-12.17 28.44m0 0c-5.16 11.54 3.04 23.53 11.39 31.04 13.63 13.09 36.11 17.34 52.42 6.69 11.02-6.9 21.02-19.45 19.3-33.17m0 0c-3.44-7.68-6.98-15.31-9.93-23.19M140.71 92.52C144.98 69.64 137.48 42.38 116.37 30.19 98.45 19.47 75.43 17.88 56.5 26.99 33.9 35.97 23.01 62.16 25.7 85.25c2.35 25.01 10.04 49.32 21.78 71.49 6.39 14.67 16.81 28.59 32.2 34.51 12.6 4.17 24.43-5.06 31.77-14.44 9.36-12.52 13.97-27.77 19.16-42.31 4.46-14.66 8.14-29.63 10.47-44.78" style="fill:none;stroke-linejoin:round;stroke-width:3;stroke:#000"/></g><g transform="translate(3135, 3840)"><path d="M141.53 69.6C138.88 51.37 127.78 33.62 110.09 26.82 87.25 16.01 57.68 20.58 39.91 38.74 25.36 54.73 23.25 78.19 27.75 98.54 30.76 121.75 40.89 143.14 51.74 163.59c-3.37 11.65-9.49 22.24-13.95 33.42-2.52 12.58 7.42 23.49 16.6 30.68 14.29 11.25 35.83 13.47 50.88 2.34 10.15-7.49 19.92-20.47 15.97-33.72-2.46-6.77-7.92-14.06-7.8-20.82 9.13-13.24 13.54-28.99 18.7-44.03 4.67-16.92 9.5-34.14 10.17-51.77-0.02-3.37-0.3-6.74-0.78-10.08z" fill="#448eff"/><path d="m51.74 163.59c-3.34 10.47-7.9 20.5-12.96 30.24m0 0c-4.88 13.43 5.32 26.53 15.76 33.9 18.01 15.61 49.28 11.61 61.84-9.01 4.09-6.02 6.87-13.44 5.54-20.79m0 0c-0.04-2.44-1.96-4.16-2.88-6.27m0.85 1.92c-1.14-2.59-2.28-5.17-3.42-7.75m1.41 3.37c-1.36-3.24-2.72-6.48-4.08-9.73M141.53 69.6C138.98 47.8 122.43 28.19 100.81 23.34 74.75 15.7 42.33 26.71 30.95 52.49c-9.79 22.77-4.13 48.34 2.89 71.03 7.63 20.35 15.81 41.48 30.95 57.52 8.6 8.42 22.61 15.1 34 8.07C118.64 176.89 125.08 152.93 131.74 132.1 137.65 111.95 143.92 90.8 141.53 69.6Z" style="fill:none;stroke-linejoin:round;stroke-width:3;stroke:#000"/><path d="m114.14 180.36c-0.48-1.29-0.96-2.59-1.44-3.88" style="fill:none;stroke-linejoin:round;stroke-width:3;stroke:#000"/></g><g transform="translate(3300, 3840)"><path d="M141.94 69.88C139.35 51.26 127.78 33.27 109.69 26.52 87.1 16.13 58.22 20.8 40.5 38.35 25.74 54.19 23.5 77.66 27.74 98.06 30.71 120.94 40.75 141.99 51.71 162.01c-3.5 11.78-9.22 22.72-14.28 33.85-3.35 11.8 5.68 22.59 14.04 29.79 13.97 12.15 35.89 16.3 51.85 5.49 10.84-7.21 20.53-20.2 17.58-33.87-1.74-7.3-10.87-15.72-5.88-22.57 8.61-13.49 13.12-29.09 17.98-44.2 4.45-16.69 9.29-33.64 9.74-51-0.05-3.21-0.33-6.42-0.8-9.61z" fill="#448eff"/><path d="M121.11 197.71 119.12 193.38 117.16 189.02 115.05 184.11" stroke-opacity="1" stroke-linejoin="round" stroke-linecap="butt" stroke-width="3" stroke="rgb(0, 0, 0)" fill="none"/><path d="m37.96 194.08c-4.71 12.51 4.9 24.57 14.1 32.02 15.6 13.87 42.02 15.81 57.25 0.33 7.79-7.2 13.8-17.81 11.8-28.72M141.94 69.88C139.41 48.56 123.77 29.09 102.65 23.83 77.55 15.98 46.07 24.92 33.05 48.83 21.38 70.72 25.96 96.57 32.55 119.29c6.19 19.19 15.23 37.53 26.56 54.19 8.07 10.49 20.81 20.87 34.9 17.99 15.63-4.51 24.14-20.24 29.76-34.35 9.41-23.22 15.78-47.74 18.77-72.61 0.34-4.88 0.21-9.8-0.61-14.62zm-26.68 114.74c-0.89-2.22-1.83-4.43-2.62-6.69" style="fill:none;stroke-linejoin:round;stroke-width:3;stroke:#000"/><path d="m51.71 162.01c-1.81 5.27-3.61 10.54-5.81 15.66C43.5 183.25 40.72 188.66 37.96 194.08" style="fill:none;stroke-linejoin:round;stroke-width:3;stroke:#000"/></g><g transform="translate(3465, 3840)"><path d="M141.46 65.48C138.2 50.31 129.05 35.87 114.84 28.87 101.07 21.48 84.6 18.81 69.39 22.94 55.66 26.23 42.07 33.54 34.87 46.16 25.47 60.96 24.44 79.41 27.59 96.26c1.97 14.45 6 28.58 12.45 41.68 3.51 7.69 7.61 15.1 11.59 22.55-3.63 11.75-8.62 23.02-14.47 33.83-1.09 3.68-1.82 7.36-0.54 11.09 1.67 6.49 5.98 12.09 10.68 16.76 8.26 8.09 19.08 13.94 30.68 15.04 9.63 1.09 19.44-1.8 27.23-7.48 6.86-5.42 12.74-12.77 14.81-21.39 1.76-5.57 0.5-11.52-2.29-16.53-1.85-4.16-3.65-8.34-5.24-12.61 9.69-11.18 13.23-25.89 18.4-39.41 5.1-16.25 8.96-32.92 11.59-49.74 1.24-8.18 0.64-16.5-1.01-24.57z" fill="#448eff"/><path d="m51.15 161.94c-1.67 4.95-3.39 9.89-5.39 14.72m0.06-0.16c-2.6 6.08-5.63 11.96-8.67 17.83m0 0c-4.31 12.01 4.78 23.47 13.38 30.87 15.11 13.6 40.59 17.32 56.48 2.98 8.78-7.35 15.7-18.87 13.26-30.69m0 0c-2.73-6.04-5.48-12.08-7.79-18.28M140.41 61.27C135.69 42.84 120.31 28.24 102 23.56 79.75 17.08 53.21 23.41 38.09 41.44 24.93 58.13 24.01 80.99 28.26 101.02c4.19 24.85 15.95 47.72 29.16 68.89 7.73 11.07 19.32 21.77 33.51 22.18 13.18-0.77 22.49-12.47 28.45-23.16 11.21-23.58 18.06-49.13 22.41-74.82C143.95 83.19 143.38 71.98 140.41 61.27Z" style="fill:none;stroke-linejoin:round;stroke-width:3;stroke:#000"/><path d="m51.63 160.49c-0.34 1.04-0.68 2.09-1.03 3.13" style="fill:none;stroke-linejoin:round;stroke-width:3;stroke:#000"/></g><g transform="translate(3630, 3840)"><path d="M142.72 69.95C140.28 54.74 132.63 39.56 119.22 31.26 104.74 22.1 86.58 18.47 69.88 22.92c-13.69 3.26-27.29 10.36-34.6 22.87-9.05 14.04-10.74 31.52-8.09 47.72 1.81 14.4 5.5 28.58 11.9 41.65 3.75 8.13 8.06 15.98 12.43 23.78-3.72 12.4-8.92 24.29-15.14 35.64-0.98 3.68-1.65 7.35-0.29 11.03 1.8 6.55 6.28 12.13 11.09 16.82 7.72 7.4 17.5 12.72 28.08 14.53 7.89 1.23 16.11 0.16 23.34-3.31 9.25-4.63 16.53-12.87 20.14-22.56 1.73-5.49 2.08-11.73-0.7-16.95-1.99-4.49-3.93-9-5.69-13.59 10.1-10.87 13.61-25.63 18.66-39.15 5.59-17.37 9.71-35.27 12.15-53.35 0.6-6.03 0.43-12.08-0.44-18.08z" fill="#448eff"/><path d="m49.27 165.76c-0.78 2.2-1.56 4.4-2.34 6.6m0.54-1.53c-0.78 1.99-1.55 3.99-2.33 5.98m0.67-1.71c-0.89 2.06-1.79 4.12-2.68 6.18m0.65-1.49c-0.94 1.98-1.88 3.97-2.82 5.95m10.57-26.8c-0.98 3.02-1.99 6.02-2.98 9.04m-7.44 17.45c-7.66 9.19-7.16 24.16 1.78 32.34 13.29 17.39 39.91 25.92 59.36 13.8 13.05-7.73 22.5-25.48 14.69-39.96-1.6-3.66-3.16-7.34-4.58-11.07M114.69 28.65C87.93 13.56 48.85 21.38 33.39 48.96c-11.97 23.02-7.48 50.46 0.79 73.91 7.77 20.36 17.73 40.33 32.3 56.7 8.75 8.73 22.67 16.14 34.78 9.74 18.1-9.59 23.98-30.78 29.9-48.86 6.94-22.4 13.47-45.76 11.69-69.42-2.43-17.29-11.95-34.61-28.17-42.38z" style="fill:none;stroke-linejoin:round;stroke-width:3;stroke:#000"/></g><g transform="translate(3795, 3840)"><path d="M42.47 37.02C26.96 52.3 23.52 75.89 27.61 96.52c2.57 21.42 12.04 41.1 22.91 59.45 0.77 7.53-4.54 15.54-7.02 22.93-2.87 8.51-10.7 16.02-8.37 25.6 4.65 14.99 18.49 25.58 32.83 30.67 16.67 6.14 36.97-0.31 46.11-15.81 6.2-8.49 7.02-20.24 1.5-29.26-6.72-7.66 1.29-12.66 4.78-19.44 7.38-14.79 11.95-30.84 16.35-46.72 4.52-20.45 11.08-42.09 4.37-62.84C136.73 45.53 125.29 32.31 110.19 26.35 89.31 16.92 63.59 20.66 45.46 34.33 44.42 35.18 43.42 36.07 42.47 37.02Z" fill="#448eff"/><path d="m41.43 183.42c-1.16 2.33-2.32 4.65-3.48 6.98" style="fill:none;stroke-linejoin:round;stroke-width:3;stroke:#000"/><path d="m43.87 178.15c-1.2 2.6-2.41 5.19-3.61 7.79" style="fill:none;stroke-linejoin:round;stroke-width:3;stroke:#000"/><path d="m45.74 173.74c-1.09 2.57-2.18 5.14-3.27 7.72m-4.29 8.47c-4.91 6.87-4.27 16.17 0.59 22.87 11.48 17.61 34.63 29.53 55.45 22.57 14.08-5.07 26.14-19.29 24.89-34.76-0.16-1.18-0.37-2.36-0.55-3.54m0 0c-2.19-5.02-4.39-10.03-6.35-15.14M51.35 157.46c-1.57 5.04-3.29 10.04-5.02 15.03M26.05 79.04c0.45 23.31 7.06 46.3 18.63 66.52 9.13 16.43 18.16 35 36.2 43.26 8.76 5.11 20.11 3.99 27.4-3.21 14.67-12.16 18.88-31.68 24.84-48.81 5.08-18.34 10.14-37.03 10.9-56.12C144.03 59.66 133.82 37.36 114.05 28.16 92.59 16.68 64.99 19.72 45.71 34.15 32.91 45.24 25.98 62.23 26.05 79.04Z" style="fill:none;stroke-linejoin:round;stroke-width:3;stroke:#000"/><path d="m47.48 169.15c-0.99 2.6-1.97 5.21-2.96 7.81" style="fill:none;stroke-linejoin:round;stroke-width:3;stroke:#000"/></g><g transform="translate(3960, 3840)"><path d="m29.6 57.86c-6.51 17.98-3.01 37.46 1.5 55.46 4.2 15.28 12.18 29.17 20.06 42.78-3.91 13.59-9.55 26.59-16.32 38.99-0.8 3.72-1.29 7.43 0.24 11.05 1.93 6.36 6.54 11.56 11.17 16.18 8.24 7.51 18.42 13.08 29.53 14.74 8.57 1.18 17.61-0.33 25.02-4.89 8.4-5.13 14.75-13.59 17.2-23.11 1.47-5.89 0.26-12.02-2.48-17.35-1.2-2.84-2.38-5.68-3.49-8.56 9.68-9.22 13.8-22.28 17.9-34.62 6.42-17.6 10.21-36.05 13.47-54.46C146.71 74.67 142.18 53.3 128.76 38.51 113.81 24.09 91.4 17.72 71.18 22.81 57.15 25.92 43.15 33.01 35.6 45.73 33.03 49.47 31.31 53.69 29.6 57.86Z" fill="#448eff"/><path d="m51.17 156.09c-3.07 10.33-6.91 20.35-13.95 34.53-9.96 15.32 3.38 26.95 11.74 34.03 14.2 12.28 36.68 17.91 53.12 6.72 10.78-7.34 19.33-21.17 15.63-34.51-1.95-4.54-3.9-9.09-5.68-13.7M26.02 82.29c1.08 21.92 7.55 43.39 18.58 62.36 9.59 16.65 18.82 35.62 37.26 44.03 8.79 5.14 20.17 4.17 27.51-3.07 10.22-8.42 15.44-21.02 19.25-33.35m-0.07 0.19c7.94-21.92 13.45-44.84 15.79-68.03C145.53 62.03 135.11 37.65 113.89 27.94 90.75 15.99 59.98 20.08 41.29 38.36 30.11 50.3 25.2 67.41 26.06 83.55" style="fill:none;stroke-linejoin:round;stroke-width:3;stroke:#000"/><path d="M38.85 187.32 34.84 195.1" stroke-opacity="1" stroke-linejoin="round" stroke-linecap="butt" stroke-width="3" stroke="rgb(0, 0, 0)" fill="none"/><path d="M41.76 181.37 38.85 187.32 37.24 190.64" stroke-opacity="1" stroke-linejoin="round" stroke-linecap="butt" stroke-width="3" stroke="rgb(0, 0, 0)" fill="none"/></g><g transform="translate(4125, 3840)"><path d="M143.98 70.83C141.41 54.72 133.21 38.49 118.44 30.44 103.79 21.19 85.24 18.69 68.63 23.58 54.28 26.92 40.64 35.5 33.78 48.88c-8.69 14.97-9.52 33.19-5.96 49.81 2.73 18.02 10.4 34.81 19.73 50.31 1.03 2.72 4.6 5.1 2.68 8.12-3.81 13.36-9.66 25.98-16.12 38.24-0.7 3.75-1.1 7.47 0.5 11.05 2.09 6.39 6.82 11.58 11.59 16.18 8.4 7.43 18.68 12.94 29.87 14.52 8.38 1.1 17.14-0.44 24.41-4.83 7.92-4.91 13.85-12.76 16.52-21.68 1.81-6.22 0.78-12.88-2.11-18.63-0.71-2.57-2.94-5.48-2.69-7.88 10.36-9.55 14.51-23.42 18.74-36.4 6.39-17.75 10.03-36.36 13.1-54.93C145.11 85.5 145.13 78.1 143.98 70.83Z" fill="#448eff"/><path d="m116.83 196.66c-1.32-3.15-2.65-6.3-3.92-9.47-0.36-0.91-0.72-1.82-1.08-2.73" style="fill:none;stroke-linejoin:round;stroke-width:3;stroke:#000"/><path d="m51 154.8c-2.39 7.08-4.45 14.29-7.47 21.13C40.69 182.55 37.33 188.93 34.1 195.37m0 0c-0.52 3.36-1.17 6.84 0.17 10.1 1.67 5.56 5.27 10.38 9.28 14.49 9.44 9.66 22.21 16.61 35.83 17.44 10.27 0.69 20.7-3.2 27.94-10.52 6.25-6.47 10.92-15.21 10.59-24.39-0.2-1.97-0.77-3.88-1.08-5.83M133.53 44.12C126.68 34.16 115.69 27.75 104.41 24 91.95 19.83 78.34 20.42 65.9 24.35 53.31 27.76 41.57 35.44 34.92 46.85 25.98 61.24 24.06 79.07 27.27 95.5 29.43 110.15 34.02 124.42 41.12 137.44 47.61 149.5 54.5 161.42 62.66 172.44c4.96 5.98 10.89 11.08 17.68 14.87 4.63 2.41 9.63 4.39 14.91 4.7 2.98 0.22 6.04-1.02 8.83-2.03 10.66-5.66 17.54-16.39 21.75-27.41 5.01-14.5 10.31-28.96 13.28-44.05 3.35-16.58 8.1-33.68 4.31-50.62C141.51 58.66 137.94 49.64 132.09 42.16" style="fill:none;stroke-linejoin:round;stroke-width:3;stroke:#000"/></g><g transform="translate(4290, 3840)"><path d="M144.85 75.2C143.24 57.64 134.87 39.48 118.96 30.62 104.99 21.67 87.39 18.94 71.31 22.98 56.73 26.07 42.34 33.83 34.81 47.16 25.4 62.07 23.7 80.75 27.56 97.71c2.66 17.6 9.99 34.08 19.18 49.19 0.97 2.59 4.16 4.93 3.75 7.66-3.72 12.23-8.28 24.21-14.39 35.46-2.26 3.78-3.58 8.02-3.24 12.41 1.42 6.83 5.42 12.76 10.37 17.56 7.44 7.63 16.98 13.33 27.29 16.05 9.05 2.32 19.03 1.95 27.38-2.5 7.78-3.9 13.9-10.97 17.09-19.02 2.92-6.6 2.89-14.27-0.18-20.81-0.82-2.72-2.94-5.71-2.83-8.28 10.28-9.25 15-22.65 18.91-35.53 7.03-19.89 11.42-40.67 14.04-61.57 0.38-4.38 0.37-8.77-0.09-13.14z" fill="#448eff"/><path d="M115.94 196.47 114.22 192.28 112.51 188.04 111.64 185.8" stroke-opacity="1" stroke-linejoin="round" stroke-linecap="butt" stroke-width="3" stroke="rgb(0, 0, 0)" fill="none"/><path d="m50.82 153.63c-2.15 6.16-3.94 12.45-6.34 18.52-2.43 6.12-5.41 12-8.37 17.88m0 0c-1.18 2.73-3.11 5.27-3.01 8.39-0.89 3.52 0.62 6.91 1.72 10.2 2.22 4.07 4.8 7.99 8.21 11.19 3.73 3.92 8.09 7.26 12.75 10.01 4.88 2.96 10.22 5.19 15.78 6.49 3.63 0.76 7.29 1.36 11.01 1.11 4.04 0.08 8.04-0.96 11.84-2.22 3.3-1.44 6.56-3 9.3-5.38 4.71-3.61 8.22-8.58 10.79-13.89 1.34-3.45 2.64-7 2.64-10.75 0.51-2.99-0.68-5.81-1.18-8.71M144.81 75.01C143.21 57.95 135.27 40.28 120.05 31.32 106.38 22.2 88.99 18.94 72.96 22.64 58.1 25.51 43.18 32.96 35.3 46.4c-9.54 14.59-11.65 33.1-7.99 49.93 1.99 12.5 5.71 24.69 11.45 35.99 6.36 12.52 13.68 24.58 21.77 36.05 5.54 8.13 13.14 14.68 21.76 19.38 5.14 2.36 10.73 4.52 16.44 4.14 4.1-0.79 7.98-2.27 11.24-4.94 9.23-7.02 14.63-17.92 18.21-28.73 4.5-13.47 9.12-26.94 11.81-40.92 2.79-14.5 6.69-29.36 4.59-44.21" style="fill:none;stroke-linejoin:round;stroke-width:3;stroke:#000"/></g><g transform="translate(4455, 3840)"><path d="M127.51 36.61C113.15 24.18 93.06 18.34 74.38 22.48 58.82 25.13 43.21 32.88 34.94 46.84 25.45 61.75 23.19 80.51 27.34 97.55c2.28 12.3 6.07 24.3 11.94 35.38 3.26 6.85 7.69 13.28 11.26 19.81-3.89 12.14-8 24.28-14.22 35.47-2.17 4.13-4.37 8.34-4.07 13.14 0.57 5.76 3.83 10.91 7.41 15.36 7.69 8.71 17.66 15.39 28.77 18.85 7.79 2.24 16.18 2.69 24.01 0.3 9.07-2.98 16.65-9.81 20.76-18.42 3.02-6.18 4.41-13.5 2.08-20.14-1.06-3.58-2.75-6.96-3.99-10.48 11.02-8.7 16.04-22.52 19.85-35.59 6.9-19.34 11.19-39.57 13.94-59.89C147.27 72.95 142.75 52.96 129.98 39.13 129.16 38.29 128.33 37.45 127.51 36.61Z" fill="#448eff"/><path d="M115.04 196.28 113.36 192.11 111.7 187.89 111.29 186.81" stroke-opacity="1" stroke-linejoin="round" stroke-linecap="butt" stroke-width="3" stroke="rgb(0, 0, 0)" fill="none"/><path d="m50.61 152.51c-1.97 5.62-3.65 11.33-5.71 16.92-1.42 3.89-3.1 7.68-4.9 11.41-1.53 3.17-3.14 6.3-4.74 9.43m0 0c-1.15 2.78-3 5.41-2.82 8.56-0.78 3.52 0.84 6.85 1.98 10.1 2.32 4.06 4.98 7.97 8.46 11.14 3.65 3.79 7.96 6.93 12.44 9.67 4.96 2.94 10.33 5.2 15.94 6.57 3.81 0.73 7.65 1.42 11.55 1.11 3.96 0.04 7.87-1.02 11.6-2.26 3.27-1.49 6.53-3.07 9.22-5.5 3.14-2.45 5.7-5.63 7.8-8.99 2.34-3.81 3.97-8.03 4.77-12.42 0.28-3.14 0.52-6.33-0.54-9.35-0.21-0.87-0.42-1.74-0.63-2.61M77.22 22C62.07 24.19 46.58 30.61 37.33 43.32 26.28 58.29 22.88 78.16 27.08 96.17c2.27 12.19 5.66 24.24 11.48 35.24 6.13 12.35 13.63 24.01 21.5 35.31 5.84 8.49 13.5 15.74 22.66 20.54 5.2 2.76 11.04 4.64 16.95 4.65 4.2-0.93 8.31-2.24 11.62-5.1 9.14-7.2 14.34-18.24 17.83-29.11 3.5-11.03 7.47-21.92 9.85-33.27 3.19-14.87 6.93-29.88 6.59-45.19C144.99 65.45 140.42 51.69 129.61 38.76 113.87 24.89 95.09 18.82 77.22 22Z" style="fill:none;stroke-linejoin:round;stroke-width:3;stroke:#000"/></g><g transform="translate(4620, 3840)"><path d="M144.36 66.95C141.08 52.9 133.6 39.15 120.95 31.51 107.78 22.84 91.3 19.16 75.77 22.34 59.54 24.81 43.09 32.75 34.56 47.36 25.47 61.79 22.84 79.9 26.93 96.42c2.75 15.32 8.4 29.98 16.28 43.37 2.31 3.91 4.7 7.78 7.16 11.59-4.01 12.87-8.39 25.69-15.07 37.47-2.14 3.99-3.97 8.16-3.6 12.79 0.77 5.95 4.25 11.25 8.14 15.72 7.89 8.65 18.09 15.11 29.31 18.48 7.53 1.9 15.55 2.41 23.04 0.02 9.16-2.89 16.7-9.98 20.63-18.71 2.85-6.21 4.01-13.5 1.56-20.04-0.94-3.16-2.38-6.16-3.48-9.27 8.92-6.15 14.08-16.37 17.68-26.33 4.46-13.62 9.17-27.19 11.9-41.29 3.53-17.45 8.02-35.5 3.88-53.27z" fill="#448eff"/><path d="M114.12 196.1 112.49 191.95 110.91 187.84" stroke-opacity="1" stroke-linejoin="round" stroke-linecap="butt" stroke-width="3" stroke="rgb(0, 0, 0)" fill="none"/><path d="m50.37 151.39c-0.82 2.83-1.9 5.58-2.76 8.4-1.84 5.67-3.72 11.34-6.21 16.76-2.14 4.74-4.55 9.35-6.96 13.96m0 0c-1.08 2.8-2.87 5.47-2.6 8.61-0.69 3.56 1.02 6.87 2.23 10.12 2.43 4.1 5.24 8.02 8.82 11.2 3.71 3.73 8.06 6.81 12.56 9.5 5.02 2.9 10.43 5.13 16.08 6.45 3.82 0.7 7.66 1.36 11.55 1.01 3.99 0 7.92-1.09 11.64-2.44 3.19-1.49 6.33-3.12 8.93-5.54 4.57-3.8 7.88-8.94 10.1-14.41 1.07-3.33 2.12-6.73 1.93-10.27 0.36-3-0.95-5.77-1.57-8.64M144.36 66.95C141.12 53.26 134.02 39.76 121.81 32.1 112.04 25.51 100.51 21.5 88.69 21.23 73.57 21.31 58.03 25.34 45.83 34.53 31.3 46.33 24.27 65.72 25.09 84.14c1.91 17.6 6.71 35.05 15.35 50.58 6.86 12.48 14.6 24.53 23.27 35.83 6.25 7.85 14.36 14.28 23.58 18.25 4.42 1.95 9.34 3.2 14.13 2.9 4.24-0.93 8.29-2.43 11.59-5.34 9.56-8.19 14.49-20.36 17.96-32.18 3.69-10.8 7.02-21.73 9.29-32.93 3.61-17.77 8.32-36.19 4.11-54.3z" style="fill:none;stroke-linejoin:round;stroke-width:3;stroke:#000"/></g><g transform="translate(4785, 3840)"><path d="M144.73 67.27C141.55 53.57 134.53 40.14 122.43 32.35 109.38 23.33 92.86 19.22 77.18 22.21 60.17 24.49 42.84 32.71 34 48.05 25.09 62.52 22.36 80.63 26.87 97.05c3.52 19.06 12.13 36.74 22.88 52.73 0.47 2.92-1.8 6.07-2.4 9.08-3.29 11.51-8.52 22.29-14.09 32.83-1.98 3.85-2.77 8.45-1.58 12.61 2.38 8.13 8.5 14.44 14.87 19.73 8.85 7 19.4 12.11 30.7 13.32 7.59 0.69 15.41-0.74 21.97-4.74 8.09-5.13 13.65-13.75 15.48-23.13 1.24-6.45-1.02-12.71-3.43-18.62-2.21-3.19 3.37-3.78 4.64-6.11 9.51-9.61 13.56-22.84 17.33-35.47 6.08-17.71 9.53-36.2 12.37-54.67 1.3-9.09 1.11-18.36-0.88-27.34z" fill="#448eff"/><path d="M113.2 195.92 111.62 191.79 110.53 188.9" stroke-opacity="1" stroke-linejoin="round" stroke-linecap="butt" stroke-width="3" stroke="rgb(0, 0, 0)" fill="none"/><path d="m50.12 150.35c-0.92 3.34-2.2 6.57-3.22 9.89-1.82 5.61-3.71 11.21-6.2 16.56-2.17 4.74-4.62 9.36-7.06 13.97m0 0c-1.02 2.82-2.73 5.52-2.38 8.65-0.61 3.61 1.2 6.9 2.49 10.14 2.54 4.1 5.44 8.02 9.1 11.19 3.8 3.69 8.2 6.76 12.77 9.41 5.08 2.86 10.54 5.06 16.24 6.33 3.8 0.67 7.64 1.29 11.51 0.91 3.96-0.04 7.85-1.16 11.53-2.55 3.07-1.5 6.11-3.09 8.58-5.49 3.02-2.52 5.43-5.76 7.35-9.18 2.14-3.83 3.52-8.05 4.1-12.4 0.13-3.12 0.21-6.29-0.96-9.24-0.25-0.87-0.5-1.75-0.75-2.62M144.73 67.27C141.62 54.02 135.03 40.95 123.52 33.13 113.6 26.06 101.73 21.63 89.51 21.28 74.15 21.26 58.34 25.27 45.88 34.53 31.05 46.41 23.77 66.13 24.8 84.84c2.05 15.85 6.26 31.56 13.66 45.79 7.44 14.08 16.26 27.43 26.03 39.99 5.55 6.59 12.17 12.3 19.89 16.2 5.46 3.03 11.69 4.91 17.93 4.9 4.2-1.1 8.44-2.25 11.68-5.32 7.56-6.46 12.15-15.77 15.43-25.02 4.3-13.73 9.15-27.34 11.67-41.56 3.4-17.23 7.78-35.04 3.64-52.55z" style="fill:none;stroke-linejoin:round;stroke-width:3;stroke:#000"/><path d="M110.35 189.08 110.34 189.04" stroke-opacity="1" stroke-linejoin="round" stroke-linecap="butt" stroke-width="3" stroke="rgb(0, 0, 0)" fill="none"/></g><g transform="translate(4950, 3840)"><path d="M145.07 67.58C142.07 53.87 134.97 40.56 123.06 32.64 109.94 23.36 93.21 19.26 77.34 22.26 60.54 24.53 43.43 32.45 34.31 47.32 25.13 61.67 21.78 79.89 26.46 96.4c3.02 14.1 8.05 27.76 15.43 40.18 2.46 4.41 5.38 8.68 7.94 12.95-4.12 13.54-8.66 27.05-15.81 39.33-2.29 4.11-3.92 8.63-3.32 13.39 1.08 6.02 4.81 11.29 8.92 15.73 8.72 8.92 19.84 15.73 32.07 18.48 9.15 2.02 19.16 1.24 27.23-3.81 8.01-5.02 13.43-13.68 15.06-22.95 1.31-6.41-1.11-12.62-3.41-18.53-1.34-2.72 4.11-3.39 5.56-5.6 9.4-9.26 13.69-22.11 17.24-34.51 6.68-19.63 10.53-40.11 13.14-60.64 0.69-7.65 0.22-15.34-1.43-22.84z" fill="#448eff"/><path d="M112.27 195.75 110.73 191.64 109.99 189.62" stroke-opacity="1" stroke-linejoin="round" stroke-linecap="butt" stroke-width="3" stroke="rgb(0, 0, 0)" fill="none"/><path d="m49.85 149.36c-0.95 3.73-2.38 7.3-3.52 10.97-1.83 5.63-3.74 11.26-6.27 16.62-2.21 4.78-4.72 9.43-7.21 14.07m98.28-32.9c7.98-23.85 14.1-48.59 15.64-73.75C147.2 63.49 138.32 41.16 119.64 30.33 97.48 16.41 67.69 19.59 45 35.34 26.06 52.22 20.31 78.36 27.33 100.24c5.59 25.11 20.07 46.99 35.36 67.23L61.65 166.13 60.62 164.77m-27.77 26.25c-0.95 2.84-2.6 5.58-2.16 8.7-0.51 3.65 1.38 6.92 2.74 10.16 2.63 4.08 5.61 7.99 9.35 11.14 3.88 3.68 8.35 6.71 12.98 9.35 4 2.19 8.17 3.99 12.56 5.25 4 1.16 8.19 1.81 12.35 1.9 3.51-0.09 7.04-0.26 10.39-1.43 3.68-0.88 7.03-2.84 10.11-4.97 2.62-2.15 5.11-4.48 6.96-7.35 2.22-3.1 3.88-6.65 4.96-10.31 0.78-2.99 1.42-6.03 1.12-9.14 0.21-3.02-1.2-5.73-1.95-8.57M63.23 168.16c9.91 12.26 24.02 23.08 40.38 23.45 13.72-2.28 21.1-15.76 25.62-27.59 1.13-3.02 2.02-6.13 2.95-9.21" style="fill:none;stroke-linejoin:round;stroke-width:3;stroke:#000"/><path d="M111.14 193.32 109.91 189.65" stroke-opacity="1" stroke-linejoin="round" stroke-linecap="butt" stroke-width="3" stroke="rgb(0, 0, 0)" fill="none"/><path d="M60.77 164.98 63.56 169.06" stroke-opacity="1" stroke-linejoin="round" stroke-linecap="butt" stroke-width="3" stroke="rgb(0, 0, 0)" fill="none"/></g></svg>