<?xml version="1.0" encoding="utf-8"?>
<!DOCTYPE svg PUBLIC "-//W3C//DTD SVG 1.1//EN" "http://www.w3.org/Graphics/SVG/1.1/DTD/svg11.dtd">
<svg version="1.1" id="Layer_1" xmlns="http://www.w3.org/2000/svg" xmlns:xlink="http://www.w3.org/1999/xlink" x="0px" y="0px"
	 width="206.76px" height="93.055px" viewBox="0 0 206.76 93.055" style="enable-background:new 0 0 206.76 93.055;"
	 xml:space="preserve">
<style type="text/css">
<![CDATA[
	.st0{fill:#8E9090;}
	.st1{fill:#3A62A0;}
]]>
</style>
<path class="st0" d="M0.159,64.406h2.713v9.477h0.062C3.9,72.2,5.646,71.141,8.077,71.141c3.772,0,6.391,3.117,6.391,7.668
	c0,5.395-3.429,8.074-6.796,8.074c-2.182,0-3.928-0.842-5.081-2.806H2.528L2.373,86.54H0.035c0.062-1.028,0.124-2.557,0.124-3.896
	V64.406z M2.872,80.492c0,0.344,0.03,0.686,0.124,0.998c0.499,1.9,2.12,3.211,4.115,3.211c2.899,0,4.582-2.339,4.582-5.8
	c0-3.022-1.559-5.61-4.52-5.61c-1.84,0-3.585,1.31-4.146,3.367c-0.094,0.343-0.155,0.717-0.155,1.152V80.492z"/>
<path class="st0" d="M19.334,79.494c0.062,3.711,2.4,5.237,5.175,5.237c1.965,0,3.181-0.344,4.178-0.778l0.499,1.963
	c-0.967,0.438-2.65,0.967-5.051,0.967c-4.645,0-7.419-3.086-7.419-7.637c0-4.554,2.681-8.105,7.076-8.105
	c4.957,0,6.235,4.302,6.235,7.076c0,0.561-0.031,0.967-0.094,1.277H19.334z M27.377,77.531c0.031-1.716-0.717-4.429-3.803-4.429
	c-2.806,0-3.99,2.525-4.209,4.429H27.377z"/>
<path class="st0" d="M39.852,76.159c0-1.776-0.031-3.305-0.124-4.707h2.4l0.124,2.992h0.094c0.686-2.026,2.369-3.305,4.208-3.305
	c0.281,0,0.499,0.031,0.749,0.062v2.587c-0.281-0.062-0.562-0.062-0.936-0.062c-1.933,0-3.305,1.436-3.679,3.491
	c-0.062,0.375-0.094,0.842-0.094,1.278v8.043h-2.743L39.852,76.159L39.852,76.159z"/>
<path class="st0" d="M51.17,79.494c0.062,3.711,2.4,5.237,5.175,5.237c1.965,0,3.181-0.344,4.178-0.778l0.499,1.963
	c-0.967,0.438-2.65,0.967-5.051,0.967c-4.645,0-7.419-3.086-7.419-7.637c0-4.554,2.681-8.105,7.076-8.105
	c4.957,0,6.235,4.302,6.235,7.076c0,0.561-0.031,0.967-0.094,1.277H51.17z M59.213,77.531c0.031-1.716-0.717-4.429-3.803-4.429
	c-2.806,0-3.99,2.525-4.209,4.429H59.213z"/>
<path class="st0" d="M75.925,86.01c-0.717,0.344-2.307,0.873-4.333,0.873c-4.551,0-7.513-3.086-7.513-7.699
	c0-4.646,3.18-8.043,8.105-8.043c1.621,0,3.055,0.404,3.803,0.812l-0.623,2.088c-0.655-0.343-1.684-0.717-3.18-0.717
	c-3.461,0-5.331,2.588-5.331,5.704c0,3.491,2.244,5.644,5.237,5.644c1.559,0,2.587-0.375,3.367-0.717L75.925,86.01z"/>
<path class="st0" d="M92.512,78.871c0,5.58-3.896,8.012-7.513,8.012c-4.053,0-7.232-2.992-7.232-7.762
	c0-5.021,3.336-7.98,7.481-7.98C89.581,71.141,92.512,74.289,92.512,78.871z M80.572,79.027c0,3.306,1.87,5.8,4.552,5.8
	c2.618,0,4.582-2.463,4.582-5.861c0-2.557-1.278-5.768-4.521-5.768C81.975,73.198,80.572,76.19,80.572,79.027z"/>
<path class="st0" d="M108.788,84.326c0,3.491-0.717,5.58-2.15,6.921c-1.496,1.341-3.617,1.808-5.519,1.808
	c-1.808,0-3.803-0.436-5.019-1.246l0.686-2.12c0.998,0.655,2.557,1.216,4.427,1.216c2.806,0,4.863-1.465,4.863-5.299v-1.651h-0.062
	c-0.812,1.401-2.464,2.523-4.802,2.523c-3.741,0-6.422-3.18-6.422-7.355c0-5.113,3.336-7.98,6.827-7.98
	c2.617,0,4.021,1.34,4.707,2.587h0.062l0.094-2.274h2.432c-0.094,1.06-0.125,2.307-0.125,4.113V84.326z M106.045,77.406
	c0-0.469-0.03-0.873-0.155-1.217c-0.5-1.621-1.809-2.931-3.834-2.931c-2.619,0-4.489,2.213-4.489,5.705
	c0,2.961,1.527,5.424,4.458,5.424c1.715,0,3.243-1.06,3.803-2.805c0.156-0.469,0.219-0.998,0.219-1.466L106.045,77.406
	L106.045,77.406z"/>
<path class="st0" d="M113.032,75.535c0-1.591-0.031-2.836-0.124-4.083h2.432l0.155,2.492h0.062c0.748-1.401,2.493-2.805,4.986-2.805
	c2.089,0,5.331,1.246,5.331,6.422v8.979h-2.743v-8.697c0-2.432-0.904-4.458-3.49-4.458c-1.777,0-3.181,1.278-3.68,2.806
	c-0.125,0.344-0.188,0.812-0.188,1.278v9.071h-2.744V75.535H113.032z"/>
<path class="st0" d="M133.3,67.213c0,0.935-0.654,1.683-1.746,1.683c-0.996,0-1.652-0.748-1.652-1.683
	c0-0.937,0.687-1.715,1.716-1.715C132.612,65.498,133.3,66.246,133.3,67.213z M130.244,86.54V71.452h2.743V86.54H130.244z"/>
<path class="st0" d="M135.731,84.95l6.797-8.886c0.686-0.841,1.309-1.559,1.994-2.369v-0.062h-8.168v-2.183h11.473v1.714
	l-6.733,8.76c-0.653,0.842-1.247,1.621-1.933,2.369v0.062h8.791v2.184h-12.221V84.95z"/>
<path class="st0" d="M152.008,79.494c0.062,3.711,2.4,5.237,5.175,5.237c1.965,0,3.182-0.344,4.178-0.778l0.5,1.963
	c-0.967,0.438-2.65,0.967-5.051,0.967c-4.646,0-7.42-3.086-7.42-7.637c0-4.554,2.682-8.105,7.076-8.105
	c4.957,0,6.235,4.302,6.235,7.076c0,0.561-0.031,0.967-0.095,1.277H152.008z M160.051,77.531c0.031-1.716-0.717-4.429-3.803-4.429
	c-2.806,0-3.99,2.525-4.209,4.429H160.051z"/>
<path class="st0" d="M179.009,64.406v18.236c0,1.341,0.062,2.868,0.124,3.896h-2.431l-0.125-2.618h-0.094
	c-0.812,1.684-2.618,2.961-5.082,2.961c-3.646,0-6.483-3.086-6.483-7.668c-0.03-5.021,3.117-8.074,6.765-8.074
	c2.338,0,3.865,1.091,4.553,2.275h0.062v-9.01L179.009,64.406L179.009,64.406z M176.297,77.594c0-0.344-0.03-0.811-0.125-1.154
	c-0.405-1.715-1.901-3.147-3.959-3.147c-2.837,0-4.521,2.494-4.521,5.799c0,3.055,1.526,5.58,4.457,5.58
	c1.84,0,3.522-1.247,4.021-3.273c0.094-0.374,0.125-0.748,0.125-1.185L176.297,77.594L176.297,77.594z"/>
<path class="st1" d="M201.709,18.207c-0.301-0.592-0.537-1.216-0.709-1.871c-0.172-0.654-0.299-1.236-0.381-1.744
	c-0.08-0.51-0.136-0.84-0.164-0.994c-0.002-0.158-0.067-0.475-0.203-0.947c-0.135-0.472-0.422-0.897-0.86-1.276
	c-0.156-0.119-0.313-0.225-0.47-0.312c0.236-0.105,0.55-0.274,0.935-0.506c0.384-0.23,0.731-0.572,1.043-1.022
	s0.478-1.06,0.496-1.824c0-0.438-0.063-0.849-0.192-1.23c-0.128-0.383-0.325-0.745-0.591-1.088c-0.32-0.454-0.768-0.807-1.34-1.057
	c-0.57-0.25-1.408-0.398-2.515-0.445c-0.204-0.016-0.413-0.023-0.627-0.027c-0.213-0.004-0.422-0.005-0.627-0.004h-5.137V18.21
	h3.442V12.19h0.596c0.318,0.003,0.64,0.021,0.962,0.052c0.321,0.03,0.618,0.148,0.889,0.355c0.195,0.165,0.332,0.393,0.412,0.679
	s0.163,0.678,0.248,1.173c0.097,0.653,0.192,1.287,0.293,1.899c0.103,0.612,0.285,1.222,0.554,1.83L201.709,18.207z M193.812,9.465
	V6.483h2.164c0.51-0.001,0.907,0.057,1.19,0.169c0.285,0.113,0.493,0.287,0.629,0.521c0.076,0.147,0.127,0.291,0.151,0.432
	c0.025,0.141,0.037,0.236,0.035,0.29c-0.006,0.207-0.035,0.382-0.086,0.526c-0.053,0.143-0.098,0.24-0.135,0.289
	c-0.191,0.36-0.473,0.581-0.842,0.66c-0.369,0.078-0.895,0.108-1.572,0.094L193.812,9.465L193.812,9.465z M206.754,11.217
	c0.017-1.226-0.155-2.407-0.517-3.545c-0.358-1.137-0.907-2.201-1.645-3.191c-1.1-1.463-2.421-2.573-3.965-3.334
	c-1.545-0.76-3.211-1.143-5-1.146c-1.574,0.023-2.938,0.268-4.086,0.731c-1.15,0.463-2.104,1.002-2.857,1.616
	c-0.752,0.614-1.322,1.157-1.705,1.632c-0.506,0.545-1.041,1.41-1.61,2.596c-0.568,1.185-0.877,2.7-0.927,4.548
	c0.025,1.647,0.293,3.066,0.801,4.258c0.507,1.191,1.095,2.17,1.761,2.936c0.668,0.768,1.256,1.336,1.765,1.71
	c0.979,0.738,2.051,1.305,3.215,1.693c1.164,0.391,2.369,0.588,3.615,0.59c0.545,0.019,1.291-0.061,2.243-0.233
	c0.953-0.175,1.979-0.542,3.087-1.105c1.104-0.562,2.159-1.422,3.163-2.574c1.152-1.436,1.894-2.812,2.226-4.131
	C206.646,12.948,206.791,11.931,206.754,11.217z M205.754,11.186c-0.037,2.172-0.649,4.113-1.838,5.823
	c-1.187,1.709-2.812,2.945-4.869,3.707c-0.774,0.258-1.458,0.424-2.05,0.498c-0.592,0.073-1.046,0.104-1.368,0.098
	c-2.106-0.022-4.004-0.596-5.69-1.717c-1.688-1.121-2.937-2.649-3.742-4.585c-0.504-1.224-0.754-2.509-0.754-3.855
	c0.026-1.532,0.287-2.854,0.783-3.96c0.494-1.105,1.063-2.011,1.709-2.713c0.644-0.702,1.203-1.214,1.68-1.536
	c1.24-0.863,2.41-1.411,3.513-1.645c1.104-0.232,1.938-0.332,2.503-0.302c1.521,0.024,2.83,0.277,3.924,0.758
	c1.094,0.479,1.988,1.034,2.684,1.663c0.695,0.63,1.212,1.182,1.544,1.655c0.877,1.269,1.434,2.46,1.67,3.572
	C205.685,9.761,205.785,10.607,205.754,11.186z"/>
<path class="st1" d="M0,0h14.364c11.021,0,18.621,3.572,18.621,13.377c0,7.296-4.256,10.943-10.944,12.616v0.151
	c7.221,0.608,12.312,5.32,12.312,12.77c0,11.399-9.425,14.137-20.217,14.137H0V0z M7.601,22.649h4.18
	c7.372,0,13.604-0.685,13.604-8.513c0-6.309-5.396-7.904-9.804-7.904h-7.98V22.649z M7.601,46.818h5.7
	c6.84,0,12.996-1.442,12.996-8.588c0-8.209-7.22-9.35-13.757-9.35H7.601V46.818z"/>
<path class="st1" d="M50.562,7.145h-7.145V0h7.145V7.145z M43.319,14.289h7.145v38.762h-7.145V14.289z"/>
<path class="st1" d="M78.432,13.377c11.781,0,19.686,8.512,19.686,20.293c0,11.096-8.057,20.293-19.686,20.293
	c-11.704,0-19.761-9.197-19.761-20.293C58.671,21.889,66.575,13.377,78.432,13.377z M78.432,48.187
	c8.36,0,12.085-7.601,12.085-14.517c0-7.373-4.484-14.519-12.085-14.519c-7.676,0-12.16,7.146-12.16,14.519
	C66.271,40.586,69.995,48.187,78.432,48.187z"/>
<path class="st0" d="M104.954,0h14.137v53.051h-14.137V0z"/>
<path class="st0" d="M128.515,0h19.305c18.47,0,31.391,5.775,31.391,26.297c0,19.838-13.301,26.754-31.391,26.754h-19.305V0
	L128.515,0z M142.651,42.562h5.472c10.565,0,16.493-5.473,16.493-16.037c0-10.563-6.156-16.037-16.493-16.037h-5.472V42.562z"/>
</svg>
